<svg width="74" height="87" viewBox="0 0 74 87" fill="none" xmlns="http://www.w3.org/2000/svg">
<path d="M16.6097 86.2905C15.585 86.848 14.6278 87 13.7382 87C10.8554 87 9.36328 85.232 9.36328 82.7884C9.36328 80.3447 11.1313 78.4529 13.9521 78.4529C14.8868 78.4529 15.6469 78.6049 16.2269 78.847V80.615C15.5343 80.249 14.7855 80.0576 14.0028 80.0576C12.2067 80.0576 11.424 81.3357 11.424 82.7602C11.424 84.3142 12.4094 85.3897 13.9803 85.3897C14.853 85.3897 15.4611 85.1363 16.0805 84.7703L16.6097 86.2905Z" fill="#001B70"></path>
<path d="M21.9315 78.5032H23.4461L26.8976 86.8701H24.865L24.0711 84.8825H21.3684L20.6083 86.8701H18.6602L21.9315 78.5032ZM23.4855 83.3454L23.0914 82.1968C22.8999 81.6281 22.7986 81.2734 22.7366 81.0088H22.7141C22.6522 81.2847 22.5396 81.6394 22.32 82.208L21.9033 83.3454H23.4855Z" fill="#001B70"></path>
<path d="M29.3906 78.5431H31.3219L34.6608 82.7547C34.9254 83.0982 35.1675 83.4135 35.404 83.7682H35.4265C35.404 83.3403 35.404 82.7322 35.404 82.4V78.5431H37.3409V86.8762H35.5448L32.0933 82.4901C31.8286 82.1466 31.5865 81.82 31.3106 81.4541H31.2825C31.3219 81.73 31.3219 82.2874 31.3219 82.6421V86.8762H29.3906V78.5431Z" fill="#001B70"></path>
<path d="M43.2244 78.5032H44.7391L48.1906 86.8701H46.1579L45.364 84.8825H42.6614L41.9013 86.8701H39.9531L43.2244 78.5032ZM44.7785 83.3454L44.3843 82.1968C44.1929 81.6281 44.0915 81.2734 44.0296 81.0088H44.0071C43.9452 81.2847 43.8325 81.6394 43.613 82.208L43.1963 83.3454H44.7785Z" fill="#001B70"></path>
<path d="M50.625 78.5431H53.6317C56.5539 78.5431 58.2712 80.114 58.2712 82.6421C58.2712 85.1702 56.2499 86.8762 53.429 86.8762H50.625V78.5431ZM53.4797 85.3222C55.4166 85.3222 56.2105 84.0722 56.2105 82.704C56.2105 81.0881 55.2364 80.1027 53.4403 80.1027H52.5563V85.3222H53.4797Z" fill="#001B70"></path>
<path d="M31.2148 71.0037C31.2148 68.5094 32.949 66.7865 35.4602 66.7865C37.9715 66.7865 39.7056 68.5094 39.7056 71.0037C39.7056 73.4981 37.9715 75.221 35.4602 75.221C32.949 75.221 31.2148 73.4981 31.2148 71.0037ZM37.6674 71.0037C37.6674 69.2583 36.7553 68.3687 35.4602 68.3687C34.1652 68.3687 33.2531 69.2527 33.2531 71.0037C33.2531 72.7548 34.1652 73.6388 35.4602 73.6388C36.7553 73.6388 37.6674 72.7548 37.6674 71.0037Z" fill="#001B70"></path>
<path d="M42.0234 66.8717H43.9322V73.5607H46.7531V75.0979H42.0234V66.8717Z" fill="#001B70"></path>
<path d="M49.418 66.8717H54.3841L53.9224 68.4088H51.3267V70.143H53.883V71.6802H51.3267V75.0979H49.418V66.8717Z" fill="#001B70"></path>
<path d="M28.8003 74.5341C27.9163 74.9733 26.7677 75.221 25.6191 75.221C22.7475 75.221 21.1484 73.4755 21.1484 71.1558C21.1484 68.6727 22.9952 66.7865 25.8555 66.7865C26.8296 66.7865 27.6179 66.9385 28.3386 67.175V68.9374C27.6517 68.6108 26.9028 68.3743 26.0076 68.3743C24.1382 68.3743 23.1867 69.4722 23.1867 71.0601C23.1867 72.6479 24.0876 73.6445 25.7204 73.6445C26.1821 73.6445 26.61 73.5825 26.8916 73.4699V71.0375H28.8003V74.5453V74.5341Z" fill="#001B70"></path>
<path d="M28.7889 72.0624H25.7034L25.6133 70.6548H28.7889V72.0624Z" fill="#001B70"></path>
<path d="M72.6385 27.5754H72.5822C72.5372 27.5754 72.5146 27.5754 72.4865 27.5754C67.5767 27.5529 62.9597 28.3805 59.7503 31.0269L59.6715 31.0832C59.5757 31.1451 59.4293 31.1676 59.3111 31.162C59.2041 31.162 59.069 31.1113 59.0183 31.0719L58.9339 31.01C57.2391 29.0337 57.6276 26.3423 57.8528 25.447V25.4133C57.8528 25.3232 57.7796 25.25 57.6951 25.25C57.6783 25.25 57.6051 25.2725 57.5938 25.2725L57.5544 25.295C53.0106 27.4628 48.9679 34.2926 46.9859 33.4649C45.004 32.6316 50.032 19.597 52.9092 14.3381L52.9317 14.293C52.9317 14.293 52.9599 14.2311 52.9599 14.1973C52.9599 14.1072 52.8867 14.034 52.7966 14.034H52.7572C47.8924 15.4247 45.111 18.6341 43.7484 19.9967L43.709 20.0418C43.6358 20.1262 43.4612 20.2557 43.2304 20.2557C42.9995 20.2557 42.8419 20.16 42.718 20.0136C39.61 16.4551 38.7541 5.43623 39.2215 1.22461C39.2215 1.21335 39.2215 1.20209 39.2215 1.19083C39.2215 1.10074 39.1708 1.04443 39.0807 1.04443C39.0413 1.04443 39.0131 1.05569 38.9906 1.07259C34.9986 3.94414 31.5583 9.95752 31.0234 14.766C31.6822 14.8392 32.5549 15.6162 32.9322 16.168C33.788 16.686 34.4412 16.5452 34.7058 17.4011C34.7452 18.133 34.002 18.1837 33.7993 18.2118C33.7993 18.2118 33.8668 18.3582 34.3342 19.5406C35.2069 19.5069 35.8995 19.3492 37.2451 18.8988C38.0616 18.6679 39.396 18.8425 40.173 19.3943C40.7417 19.7433 40.8318 19.9573 40.9388 20.2276C41.1246 20.7118 40.691 21.0721 40.6122 21.5901C40.5784 21.8097 39.9591 22.3221 39.3678 22.8289C38.8217 23.2962 38.5458 23.5608 38.5458 23.5608C38.5458 23.5608 44.9533 31.2577 45.1729 35.6833C45.2968 36.252 45.4375 37.1022 45.5839 37.7779C47.8812 43.0536 44.5423 55.2775 44.3452 56.8259C44.3452 56.854 44.3227 56.8934 44.3283 56.9216C52.3574 57.5353 56.8168 61.1726 57.8246 60.8911C58.2638 60.7672 55.7751 56.4768 55.3078 54.2978C55.6287 51.4994 65.8312 44.0784 70.4764 40.9985C70.4877 40.9929 70.5045 40.9816 70.5102 40.976C70.5552 40.9478 70.589 40.8972 70.589 40.8409C70.589 40.7845 70.5552 40.7395 70.5214 40.7113C70.1555 40.5368 67.2389 40.0807 65.8256 39.8949L65.6567 39.8105C65.6173 39.7823 65.5497 39.726 65.5441 39.7148C65.4878 39.6472 65.392 39.5571 65.3639 39.3094C65.3639 39.2981 65.3639 39.2024 65.3639 39.1911C67.0699 33.5099 71.6588 29.4729 72.7511 27.9188L72.7793 27.8231C72.7793 27.8231 72.7905 27.7893 72.7905 27.7781C72.7905 27.688 72.7286 27.5979 72.6441 27.5866L72.6385 27.5754Z" fill="#001B70"></path>
<path d="M35.3367 35.3907C34.2162 32.947 31.5136 31.2354 30.1567 29.2872L27.4033 39.5685C27.9945 39.394 28.6083 39.5685 28.9911 40.0978C29.5429 40.8748 29.6837 41.9333 29.1882 42.2711C28.6815 42.6202 27.454 42.7385 26.6038 41.6518C26.2322 41.1788 26.3279 40.6045 26.5531 40.1991L29.6893 28.4933C29.5767 28.2456 29.4866 27.9978 29.4303 27.7444C29.2952 27.1645 29.3853 25.8019 29.2614 25.3796C29.1375 24.9686 28.7884 24.856 28.5745 24.4619C29.0925 23.7975 30.0891 23.0711 30.0891 23.0711L29.7118 22.5869L29.3965 22.57C29.3965 22.57 29.115 22.4011 28.963 22.1308C28.597 22.2491 27.4653 21.4158 27.8425 20.8358C27.6173 20.4135 27.3132 20.0138 27.0993 19.5014C26.7502 18.6568 26.7558 17.739 27.0937 16.9677C24.4811 15.7064 22.6568 13.4936 21.4857 13.702C21.4068 13.7132 21.3449 13.7808 21.3449 13.8652C21.0634 26.1003 26.0576 31.9504 24.6951 32.9245C22.5667 34.4447 16.2212 21.5058 15.2302 22.1252C14.2448 22.7558 15.3484 28.3525 13.9126 29.1746C9.87557 30.2669 3.66512 28.8705 0.900544 28.0935H0.889283C0.889283 28.0935 0.8555 28.0766 0.832978 28.0766C0.74289 28.0766 0.664062 28.1498 0.664062 28.2399C0.664062 28.2512 0.664062 28.2568 0.669693 28.2624H0.664062C1.21585 32.8175 3.45116 36.1339 8.96343 41.7588C8.99158 41.7925 9.00847 41.832 9.00847 41.8826C9.00847 41.8939 9.00847 41.9108 9.00284 41.9277C8.71006 43.2058 5.97363 44.1011 5.08401 44.9625C4.92072 45.1145 4.81938 45.2666 4.80811 45.4242C4.79685 45.5594 4.81938 45.7057 4.87568 45.8578C5.7653 48.1325 14.3743 52.3666 20.2301 53.6898C20.3314 53.7123 20.444 53.7292 20.4609 53.8081C20.4834 53.8812 20.4271 53.9544 20.3765 54.0445C18.3382 58.1154 17.595 62.7662 18.783 63.6502C19.4305 64.1344 23.0115 62.2932 27.7074 60.4689C28.7603 58.5208 30.3537 56.1954 32.33 55.2607C34.6048 53.1155 33.5631 40.1935 35.3311 38.9323C35.3705 38.296 35.5113 37.6147 35.6464 37.1305C34.9426 36.6181 35.652 36.0945 35.3311 35.3907H35.3367Z" fill="#001B70"></path>
<path d="M36.7018 56.4669C36.5442 56.664 36.0881 57.2327 35.4688 58.0097C36.8144 57.7056 38.1714 57.4804 39.5115 57.3622C39.7479 52.8747 39.9506 48.7644 39.9506 48.7644C39.9506 48.7644 38.2896 53.2463 36.7018 56.4613V56.4669Z" fill="#001B70"></path>
<path d="M71.4506 40.8977C71.4956 40.8695 71.5238 40.8189 71.5238 40.7626C71.5238 40.7119 71.5012 40.6612 71.4618 40.6331C70.9326 40.177 67.8302 39.7209 65.8876 39.4675H65.9101C65.9101 39.4675 65.8933 39.4675 65.8876 39.4675C65.8088 39.4563 65.7469 39.3887 65.7469 39.3043C65.7469 39.2874 65.7469 39.2761 65.7469 39.2648C67.6443 32.9474 73.3143 28.8034 73.4944 27.3788C73.4944 27.3788 73.4944 27.3563 73.4944 27.3451C73.4944 27.2606 73.4269 27.1874 73.3424 27.1818H73.3312C73.2861 27.1705 73.2467 27.1818 73.2185 27.1818C67.9259 27.0635 62.9316 27.818 59.3619 30.7121C59.3337 30.7346 59.2943 30.7515 59.2549 30.7515C59.1986 30.7515 59.1479 30.7234 59.1198 30.6783C57.3349 28.3642 58.2583 25.7291 58.3878 24.8113C58.3878 24.8113 58.3878 24.7888 58.3878 24.7775C58.3878 24.6875 58.3146 24.6143 58.2245 24.6143C58.2132 24.6143 58.1964 24.6143 58.1851 24.6143C54.0467 25.4983 48.5063 33.8258 47.1268 33.0825C45.7642 32.3506 51.147 17.5874 53.8946 13.5897C53.8946 13.5897 53.9228 13.5278 53.9228 13.494C53.9228 13.4039 53.8496 13.3307 53.7595 13.3307C53.7483 13.3307 53.737 13.3307 53.7257 13.3307C48.1572 14.7215 45.8768 17.182 43.2755 19.7889C43.2474 19.8171 43.2023 19.8396 43.1573 19.8396C43.1066 19.8396 43.0616 19.8171 43.0334 19.7777C39.931 16.2304 39.0245 4.58093 39.7902 0.324265C39.7902 0.324265 39.7902 0.301743 39.7902 0.290482C39.7902 0.200394 39.717 0.127197 39.6269 0.127197C39.5932 0.127197 39.5594 0.138458 39.5369 0.15535C34.5876 3.48861 31.0911 9.4851 30.4492 15.2451C31.3388 15.3352 32.0201 15.8363 32.5494 16.6021C33.3658 17.1651 33.8669 16.9962 34.1822 17.5311C34.2048 17.959 32.9548 17.7676 32.9548 17.7676C32.9548 17.7676 33.501 18.7135 33.9458 20.0986C34.7509 20.1099 35.8714 19.9578 37.2227 19.468C38.0617 19.2259 39.306 19.3892 40.0267 20.0029C40.3195 20.1887 40.3871 20.3126 40.4377 20.5096C40.4884 20.7123 40.1675 21.022 40.1224 21.4218C40.0999 21.6301 39.4299 22.1481 38.8443 22.6492C38.2981 23.1166 37.8364 23.5783 37.8364 23.5783C37.8364 23.5783 44.4072 31.3652 44.6325 35.7796C44.7563 36.3482 44.914 37.2773 45.0548 37.9529C47.3745 43.2512 43.8104 55.7003 43.7316 57.2712C43.7316 57.2994 43.7316 57.3331 43.7316 57.3613C53.1458 57.9975 56.8676 62.1923 58.1288 61.2126C58.8945 60.6157 56.3608 56.9784 55.7077 54.2532C56.1637 51.6801 66.7998 43.8143 71.4112 40.909C71.428 40.9033 71.4393 40.8921 71.4506 40.8808V40.8977Z" fill="#001B70"></path>
<path d="M9.03064 41.9743C9.03064 41.9743 9.03064 41.9461 9.03064 41.9292C9.03064 41.8786 9.01375 41.8391 8.97997 41.811C3.4846 36.1917 1.25491 32.8866 0.703125 28.3372C0.703125 28.3372 0.703125 28.3203 0.703125 28.3147C0.703125 28.2246 0.776322 28.1514 0.86641 28.1514C0.888932 28.1514 0.905823 28.1514 0.922715 28.1626C3.68166 28.9396 9.88085 30.3304 13.9067 29.2437C15.3368 28.4273 14.2332 22.8362 15.2242 22.2112C16.2152 21.5862 22.5495 34.5026 24.6666 32.988C26.0291 32.0139 21.0461 26.1751 21.322 13.9625C21.322 13.878 21.384 13.8105 21.4628 13.7992C21.4684 13.7992 21.4741 13.7992 21.4853 13.7992H21.4628C22.6339 13.5965 24.4582 15.798 27.0595 17.0593C26.7217 17.8307 26.7217 18.7484 27.0708 19.5874C27.2847 20.0941 27.5888 20.4995 27.814 20.9162C27.4368 21.4961 28.5629 22.3294 28.9289 22.2056C29.0809 22.4758 29.368 22.6504 29.368 22.6504L29.6833 22.6673L30.0606 23.1515C30.0606 23.1515 29.0696 23.8778 28.546 24.5366C28.7599 24.9307 29.109 25.0433 29.2329 25.46C29.3568 25.8766 29.2667 27.2392 29.3962 27.8192C29.4525 28.0725 29.5426 28.3203 29.6552 28.568L26.5246 40.2457C26.2938 40.6455 26.2037 41.2254 26.5697 41.6927C27.4199 42.7794 28.6417 42.6612 29.1484 42.3121C29.6439 41.9686 29.5032 40.9101 28.9514 40.1444C28.5685 39.6095 27.9604 39.4405 27.3692 39.6151L30.1169 29.3619C31.4738 31.3045 34.1652 33.0105 35.2857 35.4485C35.6123 36.1523 34.8972 36.6703 35.601 37.1827C35.4659 37.6613 35.3251 38.3482 35.2857 38.9788C33.5233 40.2401 34.5594 53.1339 32.2903 55.2792C30.3252 56.2138 28.7318 58.5336 27.6789 60.4761C22.9943 62.3004 19.4189 64.1416 18.7714 63.6573C17.589 62.7677 18.3266 58.1338 20.3649 54.0686C20.4155 53.9729 20.4662 53.9053 20.4437 53.8321C20.4212 53.7589 20.3142 53.7364 20.2128 53.7139C14.3684 52.3963 5.77621 48.1678 4.89222 45.8987C4.83592 45.7467 4.80776 45.6003 4.82466 45.4652C4.84155 45.3075 4.9429 45.1555 5.10055 45.0035C5.99017 44.142 8.72097 43.2524 9.01375 41.9743H9.03064Z" fill="#001B70"></path>
<path d="M36.6667 56.483C36.5034 56.6801 36.0529 57.2487 35.4336 58.0257C36.7793 57.7217 38.1306 57.4909 39.4707 57.3782C39.7128 52.902 39.9042 48.803 39.9042 48.803C39.9042 48.803 38.2488 53.268 36.6667 56.483Z" fill="#001B70"></path>
<path d="M62.9059 78.5032H64.4205L67.872 86.8701H65.8394L65.0455 84.8825H62.3372L61.5771 86.8701H59.6289L62.9059 78.5032ZM64.4599 83.3454L64.0657 82.1968C63.8743 81.6281 63.773 81.2734 63.711 81.0088H63.6885C63.6266 81.2847 63.514 81.6394 63.2944 82.208L62.8777 83.3454H64.4599Z" fill="#001B70"></path>
</svg>