<svg width="155" height="87" viewBox="0 0 155 87" fill="none" xmlns="http://www.w3.org/2000/svg">
<path d="M38.0695 17.6777H20.2339V22.9576H32.8818C32.2519 30.3593 26.0885 33.5297 20.2586 33.5297C12.5759 33.5667 6.32602 27.3739 6.28897 19.7009C6.28897 19.6145 6.28897 19.5405 6.28897 19.4541C6.28897 11.448 12.4894 5.29221 20.2709 5.29221C26.2738 5.29221 29.8063 9.11642 29.8063 9.11642L33.5118 5.27988C33.5118 5.27988 28.7564 0 20.0856 0C9.04337 0 0.496094 9.3138 0.496094 19.3678C0.496094 29.4217 8.53695 38.8342 20.3697 38.8342C30.7821 38.8342 38.403 31.7163 38.403 21.1812C38.403 18.9607 38.0818 17.6777 38.0818 17.6777H38.0695Z" fill="#001B70"></path>
<path d="M52.6826 13.8534C45.3582 13.8534 40.1211 19.565 40.1211 26.2266C40.1211 32.8881 45.2099 38.8095 52.7691 38.8095C59.6118 38.8095 65.2194 33.5789 65.2194 26.3746C65.2194 18.1217 58.6978 13.8534 52.6826 13.8534ZM52.7567 18.7509C56.351 18.7509 59.7601 21.6622 59.7601 26.3376C59.7601 31.013 56.3634 33.912 52.732 33.912C48.7425 33.912 45.6052 30.7169 45.6052 26.3006C45.6052 21.8842 48.7054 18.7509 52.7567 18.7509Z" fill="#001B70"></path>
<path d="M80.0147 13.8534C72.6902 13.8534 67.4531 19.565 67.4531 26.2266C67.4531 32.8881 72.542 38.8095 80.1011 38.8095C86.9439 38.8095 92.5515 33.5789 92.5515 26.3746C92.5515 18.1217 86.0299 13.8534 80.0147 13.8534ZM80.0888 18.7509C83.6831 18.7509 87.0921 21.6622 87.0921 26.3376C87.0921 31.013 83.6954 33.912 80.0641 33.912C76.0745 33.912 72.9372 30.7169 72.9372 26.3006C72.9372 21.8842 76.0375 18.7509 80.0888 18.7509Z" fill="#001B70"></path>
<path d="M106.806 13.8657C100.087 13.8657 94.8125 19.7377 94.8125 26.3376C94.8125 33.8503 100.939 38.8341 106.695 38.8341C110.252 38.8341 112.154 37.4155 113.537 35.7994V38.2667C113.537 42.572 110.919 45.1502 106.966 45.1502C103.014 45.1502 101.235 42.3129 100.556 40.7092L95.7512 42.6953C97.4557 46.2975 100.889 50.0477 107.003 50.0477C113.698 50.0477 118.775 45.8411 118.775 37.033V14.6059H113.55V16.7154C111.944 14.976 109.733 13.8534 106.806 13.8534V13.8657ZM107.288 18.7632C110.585 18.7632 113.957 21.5758 113.957 26.3623C113.957 31.1487 110.585 33.9243 107.213 33.9243C103.632 33.9243 100.297 31.0253 100.297 26.4116C100.297 21.7979 103.755 18.7632 107.288 18.7632Z" fill="#001B70"></path>
<path d="M142.093 13.8291C135.757 13.8291 130.434 18.8623 130.434 26.2886C130.434 34.1468 136.362 38.8098 142.686 38.8098C147.973 38.8098 151.234 35.9232 153.16 33.3326L148.837 30.4583C147.713 32.1977 145.836 33.9001 142.711 33.9001C139.203 33.9001 137.585 31.9756 136.585 30.1129L153.346 23.1676L152.493 21.1321C150.875 17.1475 147.096 13.8168 142.106 13.8168L142.093 13.8291ZM142.316 18.6279C144.601 18.6279 146.244 19.8368 146.935 21.2925L135.745 25.9679C135.263 22.3534 138.697 18.6279 142.303 18.6279H142.316Z" fill="#001B70"></path>
<path d="M122.445 38.0821H127.954V1.29565H122.445V38.0821Z" fill="#001B70"></path>
<path d="M6.61374 86.9998C6.62401 86.8665 7.7636 80.9603 8.33852 78.079C8.37959 77.8842 8.30772 77.7611 8.17426 77.6381C6.01828 75.5463 1.48047 71.0859 1.48047 71.0654C1.61393 71.0347 7.66093 70.2246 10.5458 69.8657C10.782 69.835 10.8846 69.7119 10.977 69.5171C12.2295 66.8409 14.8167 61.3243 14.8988 61.1705C14.981 61.3038 17.599 66.8511 18.8412 69.5376C18.9336 69.7427 19.0465 69.8452 19.2827 69.8657C22.1778 70.2349 28.194 71.0244 28.3788 71.0552C28.2556 71.1885 23.8205 75.5258 21.685 77.5766C21.5002 77.7611 21.4489 77.9149 21.5002 78.1713C22.0649 81.0013 23.184 86.8357 23.2045 86.9793C23.0608 86.9177 17.7837 84.1697 15.2376 82.8162C14.981 82.6829 14.7962 82.6932 14.5498 82.8162C12.0242 84.1492 6.75748 86.8972 6.61374 86.969V86.9998Z" fill="#001B70"></path>
<path d="M38.0395 87C38.0498 86.8667 39.1894 80.9606 39.7643 78.0792C39.8054 77.8844 39.7335 77.7614 39.6 77.6383C37.4441 75.5466 32.9062 71.0862 32.9062 71.0657C33.0397 71.0349 39.0867 70.2249 41.9716 69.866C42.2077 69.8352 42.3104 69.7122 42.4028 69.5173C43.6553 66.8411 46.2425 61.3246 46.3246 61.1708C46.4068 61.3041 49.0247 66.8514 50.267 69.5379C50.3594 69.7429 50.4723 69.8455 50.7084 69.866C53.6036 70.2351 59.6198 71.0246 59.8046 71.0554C59.6814 71.1887 55.2463 75.5261 53.1108 77.5768C52.926 77.7614 52.8747 77.9152 52.926 78.1715C53.4907 81.0016 54.6097 86.836 54.6303 86.9795C54.4865 86.918 49.2095 84.17 46.6634 82.8165C46.4068 82.6832 46.222 82.6934 45.9756 82.8165C43.45 84.1495 38.1833 86.8975 38.0395 86.9693V87Z" fill="#001B70"></path>
<path d="M69.4536 87C69.4639 86.8667 70.6034 80.9606 71.1784 78.0792C71.2194 77.8844 71.1476 77.7614 71.0141 77.6383C68.8581 75.5466 64.3203 71.0862 64.3203 71.0657C64.4538 71.0349 70.5008 70.2249 73.3857 69.866C73.6218 69.8352 73.7245 69.7122 73.8169 69.5173C75.0694 66.8411 77.6566 61.3246 77.7387 61.1708C77.8208 61.3041 80.4388 66.8514 81.6811 69.5379C81.7735 69.7429 81.8864 69.8455 82.1225 69.866C85.0177 70.2351 91.0339 71.0246 91.2187 71.0554C91.0955 71.1887 86.6603 75.5261 84.5249 77.5768C84.3401 77.7614 84.2888 77.9152 84.3401 78.1715C84.9047 81.0016 86.0238 86.836 86.0443 86.9795C85.9006 86.918 80.6236 84.17 78.0775 82.8165C77.8208 82.6832 77.636 82.6934 77.3896 82.8165C74.8641 84.1495 69.5973 86.8975 69.4536 86.9693V87Z" fill="#001B70"></path>
<path d="M100.879 87C100.89 86.8667 102.029 80.9606 102.604 78.0792C102.645 77.8844 102.573 77.7614 102.44 77.6383C100.284 75.5466 95.7461 71.0862 95.7461 71.0657C95.8796 71.0349 101.927 70.2249 104.811 69.866C105.048 69.8352 105.15 69.7122 105.243 69.5173C106.495 66.8411 109.082 61.3246 109.164 61.1708C109.247 61.3041 111.865 66.8514 113.107 69.5379C113.199 69.7429 113.312 69.8455 113.548 69.866C116.443 70.2351 122.46 71.0246 122.644 71.0554C122.521 71.1887 118.086 75.5261 115.951 77.5768C115.766 77.7614 115.715 77.9152 115.766 78.1715C116.331 81.0016 117.45 86.836 117.47 86.9795C117.326 86.918 112.049 84.17 109.503 82.8165C109.247 82.6832 109.062 82.6934 108.815 82.8165C106.29 84.1495 101.023 86.8975 100.879 86.9693V87Z" fill="#001B70"></path>
<path d="M132.309 87C132.319 86.8667 133.459 80.9606 134.034 78.0792C134.075 77.8844 134.003 77.7614 133.87 77.6383C131.714 75.5466 127.176 71.0862 127.176 71.0657C127.309 71.0349 133.356 70.2249 136.241 69.866C136.477 69.8352 136.58 69.7122 136.672 69.5173C137.925 66.8411 140.512 61.3246 140.594 61.1708C140.676 61.3041 143.294 66.8514 144.537 69.5379C144.629 69.7429 144.742 69.8455 144.978 69.866C147.873 70.2351 153.889 71.0246 154.074 71.0554C153.951 71.1887 149.516 75.5261 147.38 77.5768C147.196 77.7614 147.144 77.9152 147.196 78.1715C147.76 81.0016 148.879 86.836 148.9 86.9795C148.756 86.918 143.479 84.17 140.933 82.8165C140.676 82.6832 140.491 82.6934 140.245 82.8165C137.72 84.1495 132.453 86.8975 132.309 86.9693V87Z" fill="#001B70"></path>
</svg>