<svg width="86" height="87" viewBox="0 0 86 87" fill="none" xmlns="http://www.w3.org/2000/svg">
<path d="M0.0841898 41.1051C0.173929 40.2469 0.263668 39.3888 0.363379 38.5307C1.12118 31.8574 3.25498 25.6688 6.89441 20.0556C13.3955 10.0205 22.4592 3.6602 34.0356 1.0757C36.1793 0.601206 38.3929 0.469962 40.5766 0.177187C40.6763 0.167092 40.766 0.136805 40.8657 0.126709H45.4125C46.27 0.21757 47.1375 0.318527 47.995 0.409388C54.536 1.17666 60.5984 3.31694 66.1024 6.95139C75.7344 13.3117 81.9663 22.1656 84.7383 33.4828C85.3166 35.8654 85.6656 38.2783 85.8052 40.7214C85.8052 40.883 85.855 41.0445 85.885 41.206V45.7087C85.7254 47.1827 85.6058 48.6566 85.3964 50.1205C84.7881 54.4112 83.5318 58.5201 81.6473 62.417C77.5292 70.958 71.3173 77.4899 63.0413 81.9723C58.0458 84.6881 52.7013 86.2832 47.0478 86.8082C46.4994 86.8587 45.941 86.9293 45.3926 87H40.756C39.8287 86.9091 38.8915 86.8183 37.9642 86.7072C33.2578 86.162 28.7509 84.8698 24.4933 82.78C15.7188 78.4792 9.10798 71.907 4.65092 63.1338C2.46727 58.823 1.07132 54.2395 0.463089 49.434C0.303553 48.2023 0.203842 46.9605 0.0742188 45.7188V41.1152L0.0841898 41.1051ZM42.4711 1.21704C19.9166 1.46943 1.57985 19.9041 1.17103 42.7506C0.742278 66.4149 19.4081 85.4957 42.2018 85.8996C65.554 86.3135 84.3793 67.4548 84.8081 44.3962C85.2568 20.3584 65.9529 0.89398 42.4711 1.21704Z" fill="#001B70"></path>
<path d="M43.0187 12.93C59.6803 12.9906 73.0714 26.4986 73.2209 43.2473C73.3705 60.3191 59.8996 74.0593 43.268 74.1502C26.1277 74.241 12.6369 60.5412 12.7666 43.1666C12.8962 26.3976 26.377 12.9401 43.0286 12.9199L43.0187 12.93ZM42.9489 14.8886C27.3043 14.8482 14.3619 27.9423 14.661 44.1156C14.9502 59.673 27.7032 72.5349 43.5771 72.2118C58.9624 71.8989 71.5558 58.9865 71.2965 43.0555C71.0473 27.488 58.414 14.828 42.9589 14.8886H42.9489Z" fill="#001B70"></path>
<path d="M78.9143 25.4173C76.6209 26.8408 74.3775 28.234 72.0841 29.6575C71.775 29.1527 71.4859 28.6681 71.1668 28.1533C72.124 27.5576 73.0513 26.9721 73.9886 26.3865L73.9587 26.3158C73.1211 26.4673 72.2835 26.5985 71.446 26.7701C71.087 26.8408 70.8477 26.8004 70.6483 26.437C70.1597 25.5183 70.1099 25.8918 70.7181 25.0438C71.1468 24.438 71.6055 23.8525 71.9844 23.1862C71.0671 23.7515 70.1597 24.3068 69.2025 24.8924C68.8934 24.3977 68.6042 23.9131 68.2852 23.3881C70.5486 21.9747 72.802 20.5815 75.1153 19.1378C75.4045 19.6123 75.7036 20.0666 75.9529 20.5411C76.0027 20.632 75.8931 20.844 75.8033 20.9651C75.0455 22.0353 74.2877 23.0953 73.5299 24.1655C73.4402 24.2967 73.3504 24.438 73.2009 24.6602C74.1082 24.5188 74.9059 24.3977 75.7136 24.2664C76.3816 24.1554 77.0397 24.0342 77.7078 23.9535C77.8474 23.9333 78.0568 24.0241 78.1365 24.1352C78.4058 24.5289 78.6351 24.9428 78.9143 25.4072V25.4173Z" fill="#001B70"></path>
<path d="M27.3715 10.3654C27.9199 11.688 28.4782 13.0206 29.0366 14.3734C28.5081 14.6056 28.0096 14.8176 27.4412 15.0599C26.4043 12.5764 25.3673 10.1131 24.3203 7.58913C24.8488 7.35693 25.3374 7.12473 25.8459 6.9531C25.9655 6.91272 26.1849 7.02377 26.3045 7.12473C27.2518 7.892 28.1891 8.67946 29.1264 9.45683C29.2859 9.58808 29.4554 9.71932 29.6847 9.80009C29.1563 8.53813 28.6378 7.27617 28.0993 5.97382C28.6378 5.74162 29.1463 5.51952 29.6947 5.27722C30.7417 7.77085 31.7687 10.2443 32.8156 12.748C32.3271 12.96 31.8883 13.1821 31.4197 13.3336C31.2801 13.374 31.0508 13.2629 30.9211 13.1619C29.7545 12.213 28.6079 11.2539 27.4512 10.2948L27.3814 10.3553L27.3715 10.3654Z" fill="#001B70"></path>
<path d="M66.9381 12.8881C66.9381 14.8265 65.5621 16.6942 63.7473 17.2394C61.464 17.9259 59.2305 16.2399 59.2305 13.827C59.2305 11.6565 60.9555 9.56665 62.9696 9.31426C65.1732 9.04168 66.948 10.6368 66.948 12.8881H66.9381ZM62.7403 15.6342C63.8271 15.6342 64.9239 14.5539 65.1832 13.2617C65.3327 12.4843 65.0934 11.8483 64.4752 11.3839C63.877 10.9296 63.2189 10.8993 62.5807 11.2627C61.6435 11.7877 61.0851 12.5954 60.9754 13.6857C60.8757 14.7255 61.7232 15.6543 62.7502 15.6442L62.7403 15.6342Z" fill="#001B70"></path>
<path d="M21.3833 18.724C18.731 18.6937 16.5373 15.6751 17.3151 13.131C17.8535 11.3541 19.7181 10.2941 21.5328 10.7484C23.547 11.2431 25.0925 13.4338 24.903 15.5136C24.7236 17.3813 23.2379 18.7442 21.3833 18.724ZM20.7052 12.4041C19.6882 12.394 18.8606 13.2521 18.9005 14.292C18.9404 15.3722 19.8178 16.5635 20.8349 16.8967C21.832 17.2197 22.869 16.6443 23.1382 15.6145C23.4971 14.2516 22.1112 12.4243 20.7052 12.4041Z" fill="#001B70"></path>
<path d="M74.9363 39.0575C77.5287 38.9666 80.1412 38.8757 82.8234 38.7748C82.943 40.6627 83.2521 42.5304 81.7565 44.0447C80.5699 45.2461 79.154 45.5793 77.5985 45.0038C76.0032 44.4183 75.1257 43.1765 74.9562 41.4804C74.8764 40.7132 74.9462 39.9257 74.9462 39.0474L74.9363 39.0575ZM76.7011 40.7434C76.5615 41.7934 77.0302 42.7525 77.8777 43.2371C78.6555 43.6813 79.6027 43.6005 80.2807 43.0553C81.0286 42.4395 81.3576 41.4501 81.0884 40.6021C79.6426 40.6526 78.1868 40.7031 76.7111 40.7535L76.7011 40.7434Z" fill="#001B70"></path>
<path d="M47.4262 11.294C48.0943 8.64896 48.7523 6.07456 49.4204 3.4093C50.4574 3.71217 51.5043 3.90399 52.4416 4.31791C53.4188 4.74193 53.8276 5.67073 53.7678 6.74087C53.7179 7.78073 53.1695 8.50762 52.2123 8.91145C52.1026 8.95183 51.9929 8.99221 51.8434 9.05278C52.3718 10.2946 52.9003 11.5161 53.4786 12.8689C52.7208 12.667 52.0627 12.5055 51.4146 12.3137C51.3149 12.2834 51.2451 12.0815 51.1853 11.9502C50.7565 10.9508 50.3278 9.9513 49.8392 8.80039C49.57 9.84025 49.3406 10.7287 49.0814 11.718C48.5429 11.5767 48.0045 11.4455 47.4062 11.294H47.4262ZM50.6867 5.46882C50.5172 6.12504 50.3776 6.71059 50.2181 7.32642C50.7565 7.41728 51.2252 7.78073 51.7038 7.32642C52.0129 7.02355 52.1425 6.67021 52.0228 6.24619C51.8334 5.56978 51.2052 5.71112 50.6867 5.47892V5.46882Z" fill="#001B70"></path>
<path d="M74.677 37.936C74.5174 37.3706 74.3579 36.8659 74.2482 36.3611C74.2183 36.2298 74.3081 36.0178 74.4177 35.9169C74.7368 35.614 75.2653 35.3919 75.375 35.0385C75.4846 34.6751 75.2054 34.1905 75.0858 33.7564C74.8365 32.8579 74.8265 32.8377 73.9292 32.8074C73.3907 32.7872 73.0816 32.6156 73.0218 32.03C72.9819 31.6767 72.8323 31.3334 72.7227 30.9296C72.8922 30.9296 73.0118 30.8993 73.1315 30.9094C75.7339 31.1416 78.3363 31.3637 80.9488 31.606C81.0784 31.6161 81.2678 31.7675 81.3177 31.8988C81.6168 32.6862 81.6069 32.6963 80.9188 33.2112C79.0044 34.6549 77.0999 36.1087 75.1955 37.5524C75.0359 37.6735 74.8864 37.7846 74.687 37.9259L74.677 37.936ZM76.6413 32.7973C76.7809 33.292 76.9005 33.716 77.0401 34.2006C77.6085 33.7867 78.127 33.403 78.7651 32.9487C77.9674 32.8882 77.3392 32.8478 76.6512 32.7973H76.6413Z" fill="#001B70"></path>
<path d="M39.0508 11.1637C39.679 9.54836 40.2672 8.0441 40.8555 6.52975C41.2643 5.4798 41.6931 4.42985 42.072 3.3698C42.2216 2.94579 42.5406 3.08713 42.7999 3.07703C43.0392 3.07703 43.3084 2.99626 43.438 3.3698C44.3554 5.93411 45.2927 8.48831 46.22 11.0526L46.2399 11.2242C45.6915 11.2242 45.1531 11.2343 44.6146 11.2242C44.5149 11.2242 44.4152 11.1031 44.3354 11.0223L44.2457 10.7901C43.9599 10.0363 43.4281 9.65605 42.6503 9.64931C41.5635 9.64931 41.5435 9.62912 41.1746 10.6589C41.025 11.0627 40.8356 11.2444 40.3969 11.194C39.9781 11.1435 39.5493 11.194 39.0508 11.194V11.1637ZM43.4281 7.87248C43.2087 7.23645 42.9993 6.62061 42.7899 5.99468L42.6703 6.02497C42.4509 6.62061 42.2415 7.21626 42.0022 7.87248H43.4281Z" fill="#001B70"></path>
<path d="M77.9657 48.9604C77.4073 48.8594 76.9187 48.7685 76.3803 48.6777C76.2307 49.4954 76.0812 50.2728 75.9316 51.1006C75.3633 50.9997 74.8149 50.8987 74.2266 50.7877C74.3562 50.081 74.4659 49.3945 74.5955 48.7181C74.7151 48.0316 74.8448 47.3551 74.9744 46.6182C77.6067 47.1028 80.1992 47.5773 82.8515 48.0618C82.6022 49.455 82.3629 50.7978 82.1037 52.2213C81.5453 52.1203 81.0069 52.0194 80.4086 51.9184C80.5482 51.1107 80.6778 50.3334 80.8174 49.4954C80.4385 49.4147 80.0995 49.344 79.7007 49.2632C79.571 49.9497 79.4514 50.5959 79.3218 51.3127C78.7534 51.2117 78.205 51.1107 77.6267 51.0098C77.7463 50.3031 77.856 49.657 77.9757 48.9503L77.9657 48.9604Z" fill="#001B70"></path>
<path d="M37.5254 5.14436C37.0169 5.25542 36.5582 5.36647 36.0497 5.47752C36.4685 7.55723 36.8873 9.59656 37.306 11.6864C36.7277 11.8075 36.1893 11.9186 35.611 12.0397C35.1822 9.9499 34.7634 7.90048 34.3347 5.83087C33.8361 5.93183 33.3675 6.02269 32.849 6.12364C32.7293 5.54819 32.6197 5.01312 32.5 4.40738C34.0754 4.07422 35.601 3.76126 37.1764 3.4281C37.2961 4.02375 37.4058 4.56891 37.5254 5.14436Z" fill="#001B70"></path>
<path d="M56.378 14.1613C55.8196 13.9089 55.3509 13.6969 54.8125 13.4445C55.9093 10.9711 56.9862 8.5178 58.083 6.02417C58.6115 6.25637 59.11 6.47848 59.6584 6.73087C58.5616 9.2245 57.4748 11.6677 56.378 14.1613Z" fill="#001B70"></path>
<path d="M6.78341 61.3988C9.08672 59.9955 11.3402 58.6225 13.6435 57.2091C13.9426 57.7139 14.2417 58.2086 14.5409 58.7134C13.5837 59.309 12.6464 59.8845 11.7091 60.4599L11.739 60.5306C12.5766 60.3892 13.4241 60.258 14.2517 60.0965C14.6107 60.0258 14.85 60.0662 15.0494 60.4397C15.538 61.3584 15.5779 60.995 14.9696 61.8329C14.5309 62.4286 14.0722 63.0141 13.6834 63.6804C14.6007 63.1252 15.518 62.5699 16.4753 61.9945C16.7744 62.4992 17.0635 62.9737 17.3826 63.5088C15.1092 64.902 12.8458 66.275 10.5225 67.6985C10.2334 67.224 9.94423 66.7697 9.69495 66.2851C9.6451 66.1943 9.76475 65.9823 9.84452 65.8611C10.6023 64.8011 11.3801 63.741 12.1478 62.681C12.2376 62.5497 12.3273 62.4185 12.4769 62.1863C11.5695 62.3175 10.7619 62.4387 9.96417 62.5598C9.29611 62.6608 8.63802 62.7819 7.96996 62.8627C7.83037 62.8829 7.62098 62.792 7.54121 62.681C7.27199 62.2872 7.04266 61.8632 6.77344 61.3988H6.78341Z" fill="#001B70"></path>
<path d="M58.2116 76.8755C57.6731 75.5429 57.1247 74.2103 56.5763 72.8574C57.1048 72.6353 57.6033 72.4233 58.1816 72.181C59.1987 74.6747 60.2157 77.1481 61.2428 79.672C60.7143 79.8941 60.2257 80.1263 59.7172 80.298C59.5975 80.3383 59.3782 80.2273 59.2585 80.1263C58.3212 79.349 57.384 78.5514 56.4467 77.7639C56.2871 77.6327 56.1276 77.5015 55.8883 77.4106C56.4068 78.6725 56.9153 79.9446 57.4438 81.257C56.9054 81.4892 56.3968 81.7013 55.8385 81.9335C54.8114 79.4297 53.8044 76.9462 52.7773 74.4324C53.2659 74.2204 53.7146 74.0084 54.1733 73.8569C54.3129 73.8165 54.5422 73.9276 54.6718 74.0386C55.8285 74.9977 56.9752 75.9669 58.1218 76.9361L58.2016 76.8755H58.2116Z" fill="#001B70"></path>
<path d="M18.6603 74.0283C18.6803 72.09 20.0662 70.2324 21.8909 69.7074C24.1843 69.0411 26.3979 70.7472 26.3779 73.15C26.3679 75.3206 24.613 77.4003 22.6089 77.6325C20.4053 77.8849 18.6404 76.2797 18.6603 74.0283ZM22.8781 71.3227C21.7912 71.3227 20.6844 72.3827 20.4252 73.675C20.2657 74.4524 20.505 75.0884 21.1232 75.5629C21.7115 76.0172 22.3795 76.0576 23.0177 75.6941C23.9549 75.1792 24.5233 74.3716 24.6429 73.2914C24.7526 72.2515 23.9051 71.3227 22.8781 71.3227Z" fill="#001B70"></path>
<path d="M64.2642 68.5569C66.9165 68.6074 69.0802 71.6361 68.2826 74.1903C67.7242 75.9671 65.8596 77.007 64.0449 76.5426C62.0307 76.0277 60.5052 73.8268 60.7145 71.7471C60.904 69.8794 62.3997 68.5266 64.2642 68.567V68.5569ZM64.8924 74.8869C65.9095 74.9071 66.7371 74.0489 66.7071 73.0192C66.6772 71.9389 65.8097 70.7476 64.7927 70.4044C63.8056 70.0712 62.7586 70.6366 62.4794 71.6664C62.1105 73.0293 63.4865 74.8667 64.8924 74.897V74.8869Z" fill="#001B70"></path>
<path d="M10.8703 47.7889C8.27788 47.8595 5.6555 47.9302 2.98326 48.0009C2.87358 46.113 2.58442 44.2352 4.09004 42.741C5.28657 41.5497 6.70245 41.2267 8.25794 41.8122C9.8533 42.4079 10.7208 43.6597 10.8803 45.3558C10.9501 46.1231 10.8803 46.9105 10.8803 47.7889H10.8703ZM9.11545 46.0928C9.26501 45.0428 8.80634 44.0837 7.95881 43.5991C7.19104 43.1549 6.23382 43.2155 5.55579 43.7607C4.80796 44.3664 4.45897 45.3558 4.72819 46.2139C6.17399 46.1735 7.62976 46.1332 9.10547 46.0928H9.11545Z" fill="#001B70"></path>
<path d="M38.1629 75.7751C37.4749 78.4201 36.7968 80.9844 36.0989 83.6396C35.0619 83.3266 34.0249 83.1247 33.0777 82.7007C32.1105 82.2666 31.7116 81.3378 31.7714 80.2676C31.8313 79.2278 32.3897 78.5009 33.3469 78.1072C33.4566 78.0668 33.5662 78.0264 33.7158 77.9759C33.1973 76.7342 32.6788 75.5025 32.1105 74.1497C32.8683 74.3516 33.5263 74.5232 34.1645 74.7251C34.2642 74.7554 34.334 74.9573 34.3839 75.0886C34.8026 76.088 35.2214 77.0976 35.7 78.2485C35.9792 77.2187 36.2086 76.3202 36.4778 75.3309C37.0162 75.4722 37.5546 75.6135 38.1429 75.7751H38.1629ZM34.8525 81.57C35.022 80.9138 35.1716 80.3282 35.3311 79.7225C34.7927 79.6316 34.324 79.2581 33.8454 79.7225C33.5363 80.0152 33.4067 80.3787 33.5164 80.8027C33.6959 81.4791 34.334 81.3479 34.8425 81.5801L34.8525 81.57Z" fill="#001B70"></path>
<path d="M11.1188 48.9103C11.2684 49.4756 11.4279 49.9804 11.5376 50.4953C11.5675 50.6265 11.4678 50.8386 11.3681 50.9395C11.049 51.2424 10.5205 51.4544 10.4109 51.8077C10.3012 52.1712 10.5704 52.6558 10.6901 53.0899C10.9393 53.9884 10.9393 54.0086 11.8367 54.049C12.3752 54.0692 12.6743 54.2509 12.7441 54.8263C12.784 55.1797 12.9236 55.533 13.0332 55.9268C12.8637 55.9268 12.7441 55.9571 12.6244 55.947C10.022 55.6946 7.41955 55.4523 4.81711 55.1797C4.68749 55.1696 4.49804 55.0182 4.44818 54.8869C4.14905 54.0894 4.15902 54.0894 4.857 53.5745C6.78141 52.1409 8.69584 50.7073 10.6203 49.2838C10.7798 49.1728 10.9393 49.0516 11.1288 48.9103H11.1188ZM9.11463 54.0389C8.97503 53.5442 8.85538 53.1101 8.72576 52.6356C8.14744 53.0495 7.62894 53.423 6.9908 53.8773C7.78848 53.9379 8.41666 53.9884 9.10466 54.049L9.11463 54.0389Z" fill="#001B70"></path>
<path d="M46.5389 75.9769C45.9008 77.5821 45.2926 79.0864 44.6943 80.6008C44.2755 81.6507 43.8368 82.6906 43.4479 83.7506C43.2884 84.1746 42.9793 84.0333 42.7101 84.0434C42.4708 84.0434 42.2015 84.114 42.0719 83.7506C41.1745 81.1762 40.2672 78.6119 39.3598 76.0476L39.3398 75.876C39.8883 75.876 40.4267 75.876 40.9651 75.8962C41.0648 75.8962 41.1645 76.0173 41.2443 76.1082L41.3341 76.3404C41.6132 77.0942 42.145 77.4778 42.9294 77.4913C44.0163 77.5115 44.0362 77.5216 44.4151 76.5019C44.5647 76.0981 44.7541 75.9164 45.2028 75.9668C45.6216 76.0173 46.0504 75.987 46.5489 75.987L46.5389 75.9769ZM42.1317 79.2378C42.3411 79.8739 42.5505 80.4998 42.7599 81.1156L42.8796 81.0853C43.0989 80.4897 43.3183 79.8941 43.5676 79.2479C43.059 79.2479 42.6203 79.2479 42.1417 79.2378H42.1317Z" fill="#001B70"></path>
<path d="M7.91706 37.8661C8.47544 37.9671 8.96402 38.068 9.50245 38.169C9.66199 37.3512 9.81155 36.5739 9.97109 35.7561C10.5394 35.8672 11.0779 35.9681 11.6761 36.0792C11.5465 36.7859 11.4169 37.4623 11.2972 38.1488C11.1676 38.8353 11.038 39.5117 10.8984 40.2386C8.26604 39.7338 5.67357 39.2391 3.03125 38.7242C3.2905 37.3411 3.53977 35.9883 3.80899 34.5648C4.36737 34.6759 4.9058 34.7768 5.50407 34.8879C5.3545 35.6955 5.22488 36.4729 5.07531 37.3108C5.45421 37.3916 5.79323 37.4623 6.1821 37.5531C6.31172 36.8666 6.44134 36.2205 6.58094 35.5037C7.14929 35.6148 7.6977 35.7157 8.27602 35.8268C8.14639 36.5234 8.03671 37.1796 7.90709 37.8863L7.91706 37.8661Z" fill="#001B70"></path>
<path d="M48.0117 82.0033C48.5202 81.8922 48.9789 81.7913 49.4874 81.6802C49.0786 79.6005 48.6798 77.5511 48.2809 75.4613C48.8593 75.3502 49.3977 75.2392 49.976 75.118C50.3848 77.2179 50.7936 79.2573 51.2025 81.337C51.711 81.2461 52.1696 81.1553 52.6881 81.0543C52.7978 81.6297 52.9075 82.1749 53.0272 82.7706C51.4517 83.0835 49.9162 83.3965 48.3408 83.7095C48.2211 83.1138 48.1214 82.5686 48.0117 81.9932V82.0033Z" fill="#001B70"></path>
<path d="M29.2288 72.8368C29.7772 73.0892 30.2558 73.3113 30.7942 73.5637C29.6874 76.027 28.5806 78.4702 27.4639 80.9638C26.9454 80.7215 26.4468 80.4994 25.8984 80.247C27.0152 77.7635 28.122 75.3304 29.2387 72.8368H29.2288Z" fill="#001B70"></path>
<path d="M70.3281 59.3789C71.5645 59.2578 72.8408 58.652 73.9676 59.6515C74.3365 59.1467 74.6655 58.6823 75.0045 58.228C75.6227 58.5006 75.6826 59.0357 75.8621 59.5405C76.6896 58.8943 77.587 58.7227 78.5742 58.8741C79.0927 58.9549 79.1425 58.9347 79.0827 59.4799C79.0328 60.0352 79.0528 60.6409 78.8235 61.1255C78.5642 61.6908 78.0756 62.1351 77.6269 62.7004C77.7565 62.9326 78.0058 63.286 78.1753 63.6696C78.4047 64.1744 78.305 64.3157 77.7665 64.3965C77.587 64.4268 77.4076 64.4167 77.2281 64.4066C77.0686 64.4066 76.909 64.3662 76.6897 64.3359C76.909 66.0017 75.6925 66.8194 74.6755 67.718C74.0174 66.7286 72.9505 65.8301 73.2995 64.3763C72.8009 64.447 72.3622 64.5075 71.754 64.5984C71.9634 63.8715 72.1329 63.3162 72.2725 62.8317C71.8437 62.3471 71.3153 61.9029 70.9962 61.3375C70.6771 60.7721 70.5575 60.0755 70.3281 59.389V59.3789ZM74.7453 67.2637C75.9917 66.4257 76.8292 65.396 76.3706 63.7907C76.231 63.3062 75.9618 62.9023 75.4134 62.6398C75.543 62.9427 75.6227 63.1345 75.7025 63.3162L75.5829 63.3768C75.4632 63.185 75.3336 62.9932 75.2139 62.8014L75.0843 62.8216V65.4464H74.8749V62.8317H74.7553C74.6256 63.0235 74.496 63.2052 74.3764 63.3869L74.2368 63.2961C74.3365 63.1143 74.4462 62.9326 74.5658 62.7206C73.11 63.5686 73.2197 65.6181 74.7652 67.2737L74.7453 67.2637ZM74.7553 61.5495C74.8849 60.8226 74.4262 60.3582 73.9476 59.9342C72.9605 59.0761 71.8637 59.2174 70.7569 59.6616C71.2455 61.9836 72.9007 63.3869 74.167 62.5288C74.0274 62.4985 73.8878 62.4783 73.7482 62.448V62.3572C73.9576 62.3067 74.167 62.2562 74.516 62.1754C73.7283 61.6707 73.0502 61.2264 72.3722 60.7923L72.442 60.6813C73.13 61.0649 73.818 61.4586 74.5957 61.9029C74.496 61.5394 74.4362 61.2971 74.3764 61.0548L74.506 61.0144C74.5858 61.1962 74.6755 61.3779 74.7553 61.5596V61.5495ZM77.3876 60.2875L77.4774 60.3784C77.1383 60.6712 76.7794 60.9337 76.4703 61.2466C76.1811 61.5394 75.6925 61.6404 75.5928 62.1552C75.8621 62.1653 76.0615 62.1754 76.2709 62.1855V62.3269C76.0714 62.3471 75.8621 62.3673 75.5829 62.3874C76.3606 62.9124 76.9888 62.5995 77.5771 62.2461C78.7537 61.5394 78.973 60.4087 78.8633 59.1467C76.7495 58.8439 74.9347 60.015 75.174 61.499C75.2538 61.3274 75.3436 61.1457 75.4233 60.974L75.5629 61.0346C75.4931 61.2466 75.4333 61.4687 75.3635 61.6807L75.4333 61.7514C76.0914 61.2567 76.7395 60.7721 77.3976 60.2774L77.3876 60.2875ZM76.2409 62.9124C76.3606 63.1749 76.5201 63.3768 76.5501 63.5989C76.6199 64.0734 76.9389 64.1744 77.3178 64.1845C77.5571 64.1845 77.7964 64.1239 78.1853 64.0734C77.8662 63.5787 77.6568 63.1345 77.3278 62.8115C77.2081 62.7004 76.8292 62.8619 76.56 62.8922C76.4603 62.9023 76.3606 62.8922 76.231 62.9124H76.2409ZM75.0444 58.5511C74.167 59.5405 74.1271 59.7323 74.9846 60.7418C75.7025 59.5506 75.6726 59.1568 75.0444 58.5511ZM72.0232 64.2652C73.0602 64.3258 73.5089 63.9826 73.7881 62.9124C73.3493 62.9326 72.8209 62.8115 72.5616 63.0235C72.2625 63.2557 72.2127 63.8008 72.0232 64.2652ZM75.0245 62.7711C75.194 62.4985 75.3735 62.3269 75.3535 62.1956C75.3336 62.0543 75.1142 61.9432 74.9846 61.8221C74.865 61.9533 74.6655 62.0846 74.6556 62.2259C74.6456 62.3572 74.835 62.5086 75.0245 62.7711Z" fill="#001B70"></path>
<path d="M8.74853 24.2563C8.46934 23.7111 8.20012 23.2063 7.85114 22.5299C8.50923 22.4693 9.00778 22.4189 9.59607 22.3583C9.41659 20.7834 10.653 19.9959 11.6302 19.057C12.3182 20.0767 13.3751 20.9853 13.0062 22.4391C13.5047 22.3684 13.9534 22.3078 14.4021 22.2371L14.5218 22.3886C14.3523 22.9539 14.1827 23.5092 13.9933 24.1351C15.4491 24.6601 15.5288 26.1442 15.9775 27.4162C15.3793 27.5172 14.781 27.709 14.1827 27.6787C13.5346 27.6484 12.8965 27.4263 12.2484 27.285C12.039 27.5778 11.7498 27.9816 11.4507 28.3753C11.2911 28.5873 11.0917 28.5671 10.9621 28.3551C10.7627 28.022 10.6031 27.6686 10.4137 27.285C9.49636 28.1936 8.25995 27.921 7.11328 27.9816C7.17311 27.4162 7.20302 26.8509 7.29276 26.2855C7.43235 25.3668 7.98076 24.7207 8.74853 24.2664V24.2563ZM11.7099 24.1553C13.2455 23.1558 13.1358 21.1872 11.5703 19.5416C10.3339 20.3493 9.50633 21.3689 9.93509 22.9741C10.0747 23.489 10.3439 23.913 10.9023 24.1452C10.7926 23.8625 10.7128 23.6606 10.6231 23.4587L10.7427 23.3981C10.8624 23.59 10.982 23.7919 11.1017 23.9837L11.2513 23.9635V21.2881H11.4507V24.1149C11.68 23.7919 11.8096 23.6001 11.9492 23.4082L12.0888 23.5092C11.9791 23.6909 11.8595 23.8726 11.69 24.1351L11.7099 24.1553ZM11.7997 24.6197C12.6372 25.1649 13.3651 25.6293 14.093 26.1038L14.0332 26.2047C13.2953 25.7908 12.5575 25.3769 11.7199 24.9024C11.8096 25.2658 11.8695 25.5081 11.9293 25.7403L11.8096 25.7706C11.7199 25.5889 11.6302 25.3971 11.5404 25.2154C11.4507 25.9423 11.8595 26.4067 12.3281 26.8206C13.3252 27.709 14.432 27.5778 15.5588 27.1436C15.1001 24.7712 13.4549 23.4284 11.9991 24.337H12.5874V24.4481C12.378 24.4986 12.1586 24.539 11.7997 24.6197ZM11.002 24.963C10.2741 25.5081 9.6559 25.9725 9.02772 26.4369L8.94795 26.3259C9.26703 26.0533 9.59607 25.8009 9.8952 25.5081C10.1644 25.2356 10.6331 25.1346 10.7527 24.65C10.4735 24.6298 10.2741 24.6197 10.0747 24.5995V24.4683C10.2641 24.4481 10.4536 24.4178 10.6829 24.3875C10.0747 23.9837 9.55619 24.0443 8.72859 24.5591C7.55201 25.286 7.3825 26.4168 7.48221 27.6686C9.67584 27.8806 11.3609 26.7802 11.1815 25.1952C11.0818 25.4375 10.992 25.6293 10.9122 25.8211L10.7627 25.7706C10.8225 25.5586 10.8923 25.3365 11.002 24.9731V24.963ZM10.0747 23.8323C9.87526 23.4284 9.76558 22.964 9.48639 22.7419C9.16732 22.4895 8.67873 22.5299 8.20012 22.8025C8.43943 23.1861 8.64882 23.5597 8.8981 23.9029C8.95792 23.9938 9.14737 24.0342 9.26703 24.0241C9.52627 23.9938 9.77555 23.913 10.0847 23.8424L10.0747 23.8323ZM11.2911 28.3349C11.5604 27.8604 11.9393 27.4667 11.9791 27.0427C12.0091 26.7297 11.6102 26.3663 11.3909 26.023C10.6231 27.0427 10.5234 27.4162 11.2911 28.3349ZM12.4976 23.8827C12.9862 23.6606 13.4549 24.2462 13.7939 23.7616C14.0332 23.4183 14.1129 22.9741 14.2725 22.54C13.2953 22.4592 12.9663 22.7116 12.4976 23.8827ZM11.8695 24.5793C11.6202 24.4077 11.4706 24.2159 11.341 24.226C11.2014 24.2361 11.0718 24.438 10.9422 24.5591C11.0718 24.7005 11.1914 24.9125 11.341 24.9428C11.4507 24.9731 11.6202 24.7611 11.8695 24.5692V24.5793Z" fill="#001B70"></path>
<path d="M45.1832 56.5223V64.397H40.7162V56.5627C37.6152 58.2992 34.5342 60.0255 31.3933 61.7923V60.0255C29.3592 59.8135 27.355 59.6015 25.281 59.3794C26.1884 57.5117 27.0658 55.6844 27.9732 53.8167C27.4846 53.5037 27.016 53.2009 26.4975 52.8677C28.1228 51.949 29.6882 51.0707 31.3235 50.152C27.6043 48.0622 23.9449 46.0027 20.1958 43.9028C20.814 43.509 21.3624 43.1658 21.9706 42.7821C20.9037 40.5611 19.8368 38.3602 18.75 36.1291C21.0533 35.8868 23.3068 35.6344 25.5702 35.4325C25.969 35.3921 26.0687 35.2609 26.0488 34.8873C26.0189 34.3724 26.0488 33.8677 26.0488 33.2518C29.7082 35.3012 33.2977 37.3204 36.9671 39.3698V27.154C37.6252 27.5175 38.1935 27.8405 38.8117 28.1838C40.2077 26.1546 41.5837 24.1556 42.9996 22.1062C44.3955 24.1354 45.7815 26.1344 47.1874 28.1838C47.7757 27.8607 48.344 27.5377 48.9922 27.1742V39.39C52.6814 37.3204 56.261 35.3113 59.9503 33.2518C59.9503 33.8778 59.9703 34.4128 59.9503 34.9479C59.9304 35.2911 60.0401 35.4022 60.3891 35.4325C62.6625 35.6546 64.9259 35.8969 67.2491 36.1392C66.1723 38.3703 65.1054 40.5611 64.0285 42.7922C64.6068 43.1658 65.1652 43.5191 65.7934 43.9229C62.0642 46.0128 58.3949 48.0723 54.6657 50.1722C56.291 51.0909 57.8564 51.9692 59.4917 52.8879C58.9831 53.211 58.5344 53.5037 58.0159 53.8369C58.9034 55.6642 59.7808 57.5016 60.7081 59.3996C58.6641 59.6116 56.6599 59.8236 54.6158 60.0457V61.8226C51.455 60.0558 48.374 58.3295 45.2032 56.5425L45.1832 56.5223ZM42.1221 49.6068C41.9327 49.728 41.823 49.8087 41.6934 49.8794C38.014 51.949 34.3347 54.0085 30.6554 56.0781C29.778 56.5728 28.9005 57.0675 28.0231 57.5521C27.7738 57.6934 27.6242 57.8954 27.7738 58.1578C27.9234 58.4304 28.1726 58.4001 28.4119 58.2588L28.6712 58.1175C33.1282 55.6137 37.5853 53.1201 42.0324 50.6164C42.1819 50.5356 42.3415 50.4649 42.5808 50.3438V50.9596C42.5808 51.7976 42.5808 52.6254 42.5808 53.4634C42.5808 53.746 42.6207 54.0287 42.9896 54.0186C43.3585 54.0186 43.3785 53.7258 43.3785 53.4432C43.3785 52.5447 43.3785 51.6461 43.3785 50.7476C43.3785 50.6265 43.4084 50.5053 43.4283 50.3539C43.538 50.4044 43.5978 50.4347 43.6577 50.4649C47.2771 52.4942 50.8966 54.5234 54.5261 56.5627C55.4933 57.1079 56.4505 57.643 57.4177 58.1881C57.6769 58.3295 57.986 58.5415 58.1954 58.178C58.4148 57.7843 58.0758 57.6228 57.7966 57.4713L57.7068 57.4209C54.5859 55.6743 51.465 53.9278 48.344 52.1711C46.8683 51.3433 45.3926 50.5053 43.8471 49.6371C44.0565 49.5059 44.2061 49.415 44.3556 49.3241C47.4865 47.5675 50.6274 45.8108 53.7583 44.034C54.197 43.7816 54.6158 43.6907 55.1144 43.7008C57.2881 43.7715 59.4518 43.822 61.6255 43.8826C61.9146 43.8826 62.1838 43.8422 62.1838 43.4888C62.1838 43.1355 61.9146 43.085 61.6255 43.085C60.5087 43.0648 59.392 43.0345 58.2752 43.0042C57.4975 42.9841 56.7197 42.9538 55.942 42.9235C56.0616 42.7519 56.1813 42.6812 56.3109 42.6105C58.4048 41.4293 60.5087 40.2582 62.6026 39.077C62.8918 38.9155 63.2109 38.7943 63.4502 38.5823C63.5798 38.4612 63.5898 38.1987 63.6596 37.9968C63.4701 37.9564 63.2807 37.8857 63.0912 37.8857C62.9716 37.8857 62.8619 37.9968 62.7422 38.0675C60.4888 39.3294 58.2253 40.6015 55.9719 41.8634C55.8223 41.9442 55.6728 42.025 55.5232 42.0956C56.3807 40.4399 57.298 38.865 58.2154 37.2901C58.3051 37.1387 58.4347 36.967 58.4347 36.8055C58.4347 36.6541 58.335 36.4421 58.2154 36.3714C58.1256 36.3108 57.9063 36.3916 57.7866 36.4622C57.6869 36.5228 57.6371 36.6743 57.5673 36.7853C56.4405 38.7237 55.3138 40.662 54.1771 42.5802C54.0375 42.8225 53.8082 43.0446 53.5589 43.186C50.9963 44.6397 48.4238 46.0834 45.8513 47.5271C45.0536 47.9713 44.2559 48.4155 43.4184 48.8799C43.3984 48.7386 43.3884 48.6578 43.3884 48.5771C43.3884 44.9325 43.3884 41.2779 43.3884 37.6333C43.3884 37.4213 43.4881 37.179 43.5978 36.9872C44.7345 34.9984 45.8912 33.0196 47.0378 31.0409C47.1774 30.7986 47.3071 30.5361 47.0079 30.3443C46.6889 30.1424 46.4994 30.3746 46.3498 30.637C45.941 31.3437 45.5322 32.0403 45.1234 32.747C44.575 33.6859 44.0366 34.6248 43.4881 35.5637C43.3984 35.382 43.3785 35.2205 43.3785 35.069C43.3785 33.0903 43.3785 31.1014 43.3785 29.1227C43.3785 28.4059 43.3785 27.6891 43.3785 26.9723C43.3785 26.6795 43.3785 26.3666 42.9697 26.3767C42.5908 26.3767 42.5908 26.6694 42.5908 26.9521C42.5908 27.1036 42.5908 27.255 42.5908 27.4064C42.5908 29.9505 42.5908 32.5047 42.5908 35.0489V35.5536C41.5438 33.9585 40.6165 32.3634 39.6792 30.7582C39.5994 30.6269 39.5396 30.4654 39.4299 30.3947C39.3103 30.3241 39.1009 30.2736 38.9912 30.3342C38.8815 30.3947 38.8018 30.6068 38.8117 30.738C38.8117 30.8894 38.9314 31.0409 39.0112 31.1822C40.1279 33.1105 41.2447 35.0287 42.3514 36.9569C42.491 37.1992 42.5808 37.5122 42.5808 37.7949C42.6007 41.3486 42.5908 44.8921 42.5808 48.4458C42.5808 48.5771 42.5608 48.6982 42.5509 48.8799C42.4113 48.8093 42.3116 48.7588 42.2119 48.7083C39.2903 47.0728 36.3888 45.3969 33.4473 43.8119C32.4203 43.2566 31.6027 42.6004 31.134 41.5101C30.9147 41.0154 30.5856 40.5611 30.3164 40.0866C29.6384 38.9256 28.9603 37.7646 28.2923 36.6036C28.1527 36.3613 27.9333 36.1796 27.704 36.3916C27.5843 36.5026 27.5943 36.7853 27.5943 36.9973C27.5943 37.0983 27.704 37.1992 27.7538 37.3002C28.5914 38.7338 29.429 40.1674 30.2666 41.6009C30.3463 41.7423 30.4261 41.8937 30.5059 42.0452C29.5088 41.5808 28.5914 41.0659 27.6741 40.551C26.1385 39.6929 24.593 38.8246 23.0675 37.9564C22.8082 37.805 22.5191 37.6636 22.3396 37.9968C22.1501 38.3501 22.4193 38.5319 22.6985 38.6833C24.7526 39.8342 26.8166 40.9851 28.8706 42.136C29.2694 42.3581 29.6683 42.5903 30.0671 42.8225L30.0372 42.974C29.5187 42.974 28.9903 42.974 28.4718 42.974C27.0858 43.0042 25.7098 43.0446 24.3338 43.0648C24.0546 43.0648 23.8253 43.1456 23.8153 43.4585C23.8153 43.7816 24.0347 43.8725 24.3138 43.8624H24.4136C26.2582 43.8119 28.0929 43.7816 29.9375 43.7008C30.9346 43.6605 31.842 43.721 32.7593 44.2763C34.943 45.5988 37.1964 46.8002 39.4299 48.0521C40.3174 48.5468 41.1948 49.0516 42.1421 49.5765L42.1221 49.6068Z" fill="#001B70"></path>
</svg>