<svg width="168" height="87" viewBox="0 0 168 87" fill="none" xmlns="http://www.w3.org/2000/svg">
<path d="M129.142 22.0804H129.067C128.937 22.5788 128.844 22.943 128.677 23.4988L127.914 25.9523H130.313L129.551 23.4797C129.328 22.828 129.29 22.5596 129.179 22.0804H129.142Z" fill="#001B70"></path>
<path d="M94.4369 21.1031C92.7629 21.1031 91.4609 22.579 91.4609 24.5149C91.4609 26.4508 92.7257 27.9267 94.3997 27.9267C96.0737 27.9267 97.3571 26.4317 97.3571 24.5149C97.3571 22.5982 96.2225 21.1031 94.4369 21.1031Z" fill="#001B70"></path>
<path d="M37.1127 21.1031C35.4387 21.1031 34.1367 22.579 34.1367 24.5149C34.1367 26.4508 35.4015 27.9267 37.0755 27.9267C38.7495 27.9267 40.0329 26.4317 40.0329 24.5149C40.0329 22.5982 38.8983 21.1031 37.1127 21.1031Z" fill="#001B70"></path>
<path d="M48.8115 21.1031H48.0117V23.8632H48.8301C49.6299 23.8632 50.2251 23.3841 50.2251 22.5024C50.2251 21.6207 49.7229 21.1031 48.8115 21.1031Z" fill="#001B70"></path>
<path d="M60.9174 21.1031C59.2434 21.1031 57.9414 22.579 57.9414 24.5149C57.9414 26.4508 59.2062 27.9267 60.8802 27.9267C62.5542 27.9267 63.8376 26.4317 63.8376 24.5149C63.8376 22.5982 62.703 21.1031 60.9174 21.1031Z" fill="#001B70"></path>
<path d="M158.978 14.3173H8.98828L16.1306 25.3577L8.98828 36.3981H158.978L151.835 25.3577L158.978 14.3173ZM30.2666 21.3325H27.7556V30.2837H24.7982V21.3325H22.2872V18.7449H30.2666V21.3325ZM37.0927 30.6479C32.9635 30.6479 31.1408 27.3511 31.1408 24.5143C31.1408 21.2367 33.6331 18.3807 37.1113 18.3807C40.8127 18.3807 43.0075 21.3325 43.0075 24.5143C43.0075 27.6961 40.4779 30.6479 37.0741 30.6479H37.0927ZM51.1356 30.2837L48.2899 25.9135H47.9923V30.2837H45.0535V18.7449H48.6991C52.047 18.7449 53.2188 20.2591 53.2188 22.3484C53.2188 24.016 52.3074 25.0318 51.1356 25.4535L54.558 30.2837H51.1356ZM60.9006 30.6479C56.7714 30.6479 54.9486 27.3511 54.9486 24.5143C54.9486 21.2367 57.441 18.3807 60.9192 18.3807C64.6206 18.3807 66.8154 21.3325 66.8154 24.5143C66.8154 27.6961 64.2858 30.6479 60.882 30.6479H60.9006ZM77.9939 30.2837H75.5387L73.1579 26.3735C71.9861 24.4568 71.6885 23.7284 71.3537 23.1918H71.2793C71.2793 23.6901 71.3537 24.7826 71.3537 25.2618V30.2837H68.8986V18.7449H71.3723L74.1623 23.3451C75.0365 24.7635 75.2411 25.3768 75.5387 25.9327H75.5945C75.5945 25.4343 75.5387 24.5335 75.5387 24.0735V18.7449H77.9939V30.2837ZM87.5914 21.3325H85.0805V30.2837H82.1231V21.3325H79.6121V18.7449H87.5914V21.3325ZM94.4176 30.6479C90.2884 30.6479 88.4656 27.3511 88.4656 24.5143C88.4656 21.2367 90.958 18.3807 94.4362 18.3807C98.1376 18.3807 100.332 21.3325 100.332 24.5143C100.332 27.6961 97.8028 30.6479 94.399 30.6479H94.4176ZM110.655 30.6479C108.2 30.6479 106.638 29.0953 106.638 26.546H109.446C109.446 27.5427 109.8 28.2136 110.711 28.2136C111.325 28.2136 111.79 27.8111 111.79 27.1402C111.79 26.3735 111.288 25.9902 110.004 25.5302C107.679 24.706 106.954 23.2301 106.954 21.735C106.954 19.5691 108.684 18.3424 110.711 18.3424C113.018 18.3424 114.468 19.7608 114.468 22.1184H111.79C111.79 21.2942 111.381 20.7575 110.674 20.7575C110.19 20.7575 109.763 21.0833 109.763 21.6775C109.763 22.4059 110.507 22.7317 111.585 23.1151C113.761 23.9009 114.636 25.2618 114.636 26.9677C114.636 28.6736 113.482 30.6287 110.655 30.6287V30.6479ZM121.201 30.2837H118.244V21.3325H115.733V18.7449H123.712V21.3325H121.201V30.2837ZM131.655 30.2837L130.929 27.9644H127.284L126.558 30.2837H123.657L127.897 18.7449H130.669L134.612 30.2837H131.655ZM142.015 30.2837L139.169 25.9135H138.871V30.2837H135.933V18.7449H139.578C142.926 18.7449 144.098 20.2591 144.098 22.3484C144.098 24.016 143.187 25.0318 142.015 25.4535L145.437 30.2837H142.015Z" fill="#001B70"></path>
<path d="M139.671 21.1031H138.871V23.8632H139.689C140.489 23.8632 141.084 23.3841 141.084 22.5024C141.084 21.6207 140.582 21.1031 139.671 21.1031Z" fill="#001B70"></path>
<path d="M22.5698 61.0522V49.4582H25.1368C27.5338 49.4582 28.9278 50.6142 28.9278 52.4162C28.9278 53.7592 28.0438 54.5242 27.0408 54.8812V54.9152C28.8598 55.1022 29.7608 56.3772 29.7608 57.8562C29.7608 60.0492 28.0438 61.0522 25.9018 61.0522H22.5698ZM28.2988 57.7542C28.2988 56.4792 27.3978 55.6972 25.7658 55.6972H23.9808V59.7602H26.0038C27.5678 59.7602 28.2988 58.9442 28.2988 57.7542ZM27.4828 52.5352C27.4828 51.2772 26.4628 50.7502 25.1368 50.7502H23.9808V54.4052H25.2388C26.6328 54.4052 27.4828 53.6402 27.4828 52.5352ZM38.1085 49.4582V50.7502H33.1615V54.4052H37.9215V55.6972H33.1615V59.7602H38.2955V61.0522H31.7505V49.4582H38.1085ZM47.3979 51.8382H45.8849C45.7149 50.9542 45.0349 50.3082 43.9639 50.3082C42.7739 50.3082 42.0429 51.0562 42.0429 52.0592C42.0429 53.1472 42.8759 53.7082 44.2359 54.1162C46.8539 54.8982 47.6869 56.1392 47.6869 57.9242C47.6869 59.6242 46.4459 61.4262 44.0489 61.4262C42.1109 61.4262 40.6149 60.4232 40.1219 58.2642H41.6689C41.9749 59.4372 42.7739 60.2022 44.0659 60.2022C45.5279 60.2022 46.2589 59.0632 46.2589 58.0092C46.2589 56.7002 45.4429 55.9522 43.7769 55.4422C41.6519 54.7962 40.6149 53.7762 40.6149 52.0592C40.6149 50.4102 41.9919 49.0842 43.9639 49.0842C45.8679 49.0842 47.1599 50.3082 47.3979 51.8382ZM51.7695 61.0522V50.7502H48.7265V49.4582H56.2235V50.7502H53.1805V61.0522H51.7695ZM70.1763 61.0522L68.3573 53.6742C68.1023 52.6202 67.9833 52.0422 67.8983 51.2092H67.8303C67.7113 52.0422 67.6263 52.5182 67.3543 53.6232L65.5523 61.0522H64.1413L60.9793 49.4582H62.4243L64.3283 56.9382C64.6173 58.0602 64.7023 58.4852 64.8383 59.1992H64.9063C65.0423 58.4682 65.1443 57.6862 65.3653 56.7852L67.1843 49.4582H68.5783L70.3973 56.9042C70.6353 57.8732 70.7543 58.5022 70.8563 59.1992H70.9243C71.0603 58.2982 71.2473 57.3972 71.3663 56.9212L73.1513 49.4582H74.5963L71.6893 61.0522H70.1763ZM76.1264 61.0522V49.4582H77.5374V61.0522H76.1264ZM81.387 51.6852H81.353C81.37 52.3142 81.387 53.5042 81.387 54.1162V61.0522H80.061V49.4582H81.387L85.161 55.0342C86.504 57.0232 87.235 58.1452 87.609 58.8422H87.643C87.609 58.1792 87.609 56.9892 87.609 56.3772V49.4582H88.935V61.0522H87.609L83.835 55.4762C82.271 53.1642 81.761 52.3822 81.387 51.6852ZM91.4497 49.4582H95.2067C99.3887 49.4582 101.531 52.0932 101.531 55.2552C101.531 58.4002 99.2527 61.0522 95.1727 61.0522H91.4497V49.4582ZM92.8607 59.7602H95.2577C98.4707 59.7602 100.069 57.7202 100.069 55.2552C100.069 52.6032 98.3517 50.7502 95.2577 50.7502H92.8607V59.7602ZM104.286 55.2552C104.286 58.0772 106.326 60.1682 108.961 60.1682C111.613 60.1682 113.653 58.0772 113.653 55.2552C113.653 52.4842 111.749 50.3422 108.961 50.3422C106.326 50.3422 104.286 52.4162 104.286 55.2552ZM102.824 55.2552C102.824 51.9402 105.408 49.0842 108.978 49.0842C112.786 49.0842 115.115 52.0082 115.115 55.2552C115.115 58.6552 112.48 61.4262 108.978 61.4262C104.745 61.4262 102.824 58.1282 102.824 55.2552ZM125.227 61.0522L123.408 53.6742C123.153 52.6202 123.034 52.0422 122.949 51.2092H122.881C122.762 52.0422 122.677 52.5182 122.405 53.6232L120.603 61.0522H119.192L116.03 49.4582H117.475L119.379 56.9382C119.668 58.0602 119.753 58.4852 119.889 59.1992H119.957C120.093 58.4682 120.195 57.6862 120.416 56.7852L122.235 49.4582H123.629L125.448 56.9042C125.686 57.8732 125.805 58.5022 125.907 59.1992H125.975C126.111 58.2982 126.298 57.3972 126.417 56.9212L128.202 49.4582H129.647L126.74 61.0522H125.227ZM142.482 55.5102V55.3062H143.774V55.4592C143.774 56.8362 143.213 58.2642 142.584 59.0972C143.23 59.9132 143.604 60.1682 144.029 60.1682C144.199 60.1682 144.437 60.1172 144.505 60.1002V61.2222C144.386 61.2562 144.063 61.3072 143.825 61.3072C143.162 61.3072 142.618 61.0352 141.785 60.0322C141.037 60.7122 140.051 61.3582 138.487 61.3582C136.022 61.3582 134.815 59.6412 134.815 57.8732C134.815 56.2242 135.92 55.1702 137.467 54.3882C137.11 53.8612 136.413 52.8242 136.413 51.6852C136.413 50.3252 137.365 49.1182 139.235 49.1182C140.697 49.1182 142.006 50.0022 142.006 51.6172C142.006 53.1302 140.697 53.8782 139.201 54.6772L141.87 58.2132C142.295 57.4142 142.482 56.4962 142.482 55.5102ZM138.504 60.1342C139.779 60.1342 140.663 59.6242 141.105 59.1822L138.113 55.2722C136.923 55.9012 136.107 56.7002 136.107 57.8732C136.107 59.1142 137.059 60.1342 138.504 60.1342ZM137.705 51.7702C137.705 52.5862 138.028 53.0452 138.555 53.8102C139.864 53.1982 140.714 52.5862 140.714 51.6172C140.714 50.9372 140.221 50.2912 139.218 50.2912C138.147 50.2912 137.705 51.0562 137.705 51.7702ZM17.7387 69.4582H21.4957C25.6777 69.4582 27.8197 72.0932 27.8197 75.2552C27.8197 78.4002 25.5417 81.0522 21.4617 81.0522H17.7387V69.4582ZM19.1497 79.7602H21.5467C24.7597 79.7602 26.3577 77.7202 26.3577 75.2552C26.3577 72.6032 24.6407 70.7502 21.5467 70.7502H19.1497V79.7602ZM30.5751 75.2552C30.5751 78.0772 32.6151 80.1682 35.2501 80.1682C37.9021 80.1682 39.9421 78.0772 39.9421 75.2552C39.9421 72.4842 38.0381 70.3422 35.2501 70.3422C32.6151 70.3422 30.5751 72.4162 30.5751 75.2552ZM29.1131 75.2552C29.1131 71.9402 31.6971 69.0842 35.2671 69.0842C39.0751 69.0842 41.4041 72.0082 41.4041 75.2552C41.4041 78.6552 38.7691 81.4262 35.2671 81.4262C31.0341 81.4262 29.1131 78.1282 29.1131 75.2552ZM44.1551 75.2552C44.1551 78.0772 46.1951 80.1682 48.8301 80.1682C51.4821 80.1682 53.5221 78.0772 53.5221 75.2552C53.5221 72.4842 51.6181 70.3422 48.8301 70.3422C46.1951 70.3422 44.1551 72.4162 44.1551 75.2552ZM42.6931 75.2552C42.6931 71.9402 45.2771 69.0842 48.8471 69.0842C52.6551 69.0842 54.9841 72.0082 54.9841 75.2552C54.9841 78.6552 52.3491 81.4262 48.8471 81.4262C44.6141 81.4262 42.6931 78.1282 42.6931 75.2552ZM61.4752 76.0712L65.1302 81.0522H63.3452L59.8432 76.2072H58.2962V81.0522H56.8852V69.4582H60.2342C63.1242 69.4582 64.1612 71.2602 64.1612 72.8582C64.1612 74.5072 62.9372 75.7822 61.4752 76.0712ZM62.6992 72.8582C62.6992 71.4982 61.8832 70.7502 60.3872 70.7502H58.2962V74.9152H60.4042C61.9342 74.9152 62.6992 73.9802 62.6992 72.8582ZM76.1195 69.0842C79.3155 69.0842 80.8115 70.9542 81.4405 72.4332H79.8425C79.2815 71.2432 78.0065 70.3422 76.1025 70.3422C73.7905 70.3422 71.5975 72.0422 71.5975 75.2382C71.5975 78.0092 73.5015 80.1682 76.1875 80.1682C78.0915 80.1682 79.4005 79.2332 80.0125 77.8562H81.6105C80.6075 79.9812 78.9585 81.4262 76.1195 81.4262C72.5495 81.4262 70.1355 78.7742 70.1355 75.2212C70.1355 71.6682 72.7365 69.0842 76.1195 69.0842ZM84.5799 75.2552C84.5799 78.0772 86.6199 80.1682 89.2549 80.1682C91.9069 80.1682 93.9469 78.0772 93.9469 75.2552C93.9469 72.4842 92.0429 70.3422 89.2549 70.3422C86.6199 70.3422 84.5799 72.4162 84.5799 75.2552ZM83.1179 75.2552C83.1179 71.9402 85.7019 69.0842 89.2719 69.0842C93.0799 69.0842 95.4089 72.0082 95.4089 75.2552C95.4089 78.6552 92.7739 81.4262 89.2719 81.4262C85.0389 81.4262 83.1179 78.1282 83.1179 75.2552ZM107.918 69.4582L109.193 81.0522H107.816L107.153 74.2862C107.068 73.3682 106.949 72.0252 106.881 71.2092H106.83C106.558 72.1102 106.15 73.3682 105.844 74.3032L103.583 81.0522H102.359L100.098 74.1162C99.809 73.2322 99.401 72.1102 99.163 71.2092H99.095C99.027 72.1442 98.942 73.1812 98.84 74.0992L98.126 81.0522H96.766L98.109 69.4582H99.826L102.342 76.9212C102.546 77.5162 102.818 78.4172 102.971 79.0462H103.039C103.192 78.4172 103.481 77.5162 103.685 76.9212L106.218 69.4582H107.918ZM117.343 73.0622C117.343 71.7022 116.544 70.7502 114.657 70.7502H112.583V75.3572H114.606C116.748 75.3572 117.343 74.3202 117.343 73.0622ZM111.172 81.0522V69.4582H114.538C117.02 69.4582 118.788 70.5802 118.788 73.0282C118.788 75.2552 117.462 76.6322 114.419 76.6322H112.583V81.0522H111.172ZM118.284 81.0522L123.01 69.4582H124.268L128.858 81.0522H127.311L126.121 77.9242H120.987L119.78 81.0522H118.284ZM122.721 73.4192L121.463 76.6662H125.645L124.421 73.4022C124.183 72.7732 123.826 71.7362 123.622 71.0562H123.554C123.333 71.7702 122.976 72.7562 122.721 73.4192ZM131.557 71.6852H131.523C131.54 72.3142 131.557 73.5042 131.557 74.1162V81.0522H130.231V69.4582H131.557L135.331 75.0342C136.674 77.0232 137.405 78.1452 137.779 78.8422H137.813C137.779 78.1792 137.779 76.9892 137.779 76.3772V69.4582H139.105V81.0522H137.779L134.005 75.4762C132.441 73.1642 131.931 72.3822 131.557 71.6852ZM144.204 81.0522V76.3262L140.566 69.4582H142.147L144.357 73.7082C144.612 74.2012 144.799 74.5922 144.969 75.0512H145.003C145.207 74.5752 145.394 74.2522 145.649 73.7252L147.757 69.4582H149.219L145.615 76.3092V81.0522H144.204Z" fill="#001B70"></path>
</svg>