<svg width="218" height="87" viewBox="0 0 218 87" fill="none" xmlns="http://www.w3.org/2000/svg">
<path d="M171.693 17.1768C171.225 17.2634 170.342 17.575 169.736 17.8867C166.914 19.2719 165.442 21.9904 165.667 25.3496C165.927 29.5225 168.766 32.2757 173.061 32.57C177.58 32.8644 180.991 30.2844 181.666 26.0768C182.168 22.8216 180.627 19.4624 177.978 18.0252C176.281 17.1075 173.788 16.7785 171.675 17.1768H171.693ZM175.883 20.5879C177.822 21.5402 178.757 23.9644 178.117 26.2846C177.563 28.2585 175.883 29.5052 173.805 29.5052C171.831 29.5052 170.602 28.8646 169.719 27.3408C169.251 26.5616 169.199 26.2846 169.199 24.8128C169.199 23.341 169.251 23.064 169.719 22.2848C170.619 20.761 171.727 20.155 173.736 20.1377C174.671 20.1204 175.138 20.2243 175.883 20.6052V20.5879Z" fill="#001B70"></path>
<path d="M102.152 17.5569C102.187 17.6781 103.105 20.7775 104.196 24.431C105.286 28.0846 106.256 31.3398 106.343 31.6515L106.55 32.2575H109.39L110.048 30.1797C110.412 29.0542 111.156 26.7686 111.693 25.1236C112.212 23.4614 112.697 22.1974 112.784 22.2666C112.836 22.3359 113.598 24.6215 114.463 27.3227L116.005 32.2575H117.528C118.359 32.2575 119.035 32.2229 119.035 32.1709C119.035 32.119 119.987 28.8637 121.147 24.8985C122.307 20.9334 123.26 17.6261 123.26 17.5396C123.26 17.4357 122.584 17.3491 121.615 17.3491H119.987L118.844 21.7991C118.221 24.2579 117.649 26.4742 117.58 26.7166C117.476 27.0456 117.078 26.0414 115.883 22.2493L114.325 17.3318L112.767 17.3837L111.226 17.4357L109.736 21.9896C108.923 24.5003 108.213 26.5781 108.161 26.6474C108.109 26.6993 107.52 24.6215 106.879 22.0415L105.702 17.3491H103.884C102.516 17.3491 102.1 17.401 102.17 17.5742L102.152 17.5569Z" fill="#001B70"></path>
<path d="M125.301 24.7941V32.2569H128.608V17.3485H125.301V24.8114V24.7941Z" fill="#001B70"></path>
<path d="M132.107 24.7941V32.2569H135.414L135.449 26.9931L135.501 21.7466L138.722 26.9931L141.942 32.2569H146.271V17.3485H142.964L142.929 22.4911L142.877 27.6338L139.743 22.4911L136.609 17.3485H132.09V24.8114L132.107 24.7941Z" fill="#001B70"></path>
<path d="M149.785 24.7779V32.2581H153.058C156.815 32.2581 158.27 32.0157 159.932 31.1326C161.352 30.3708 162.72 28.8816 163.239 27.5137C163.81 26.0419 163.81 23.41 163.239 21.9382C162.495 19.9989 160.919 18.631 158.564 17.8518C157.612 17.5402 156.781 17.4709 153.612 17.3843L149.785 17.3151V24.7952V24.7779ZM157.404 20.7608C158.564 21.159 159.811 22.3711 160.07 23.3235C160.676 25.5744 159.88 27.6176 157.975 28.6219C157.387 28.9336 156.815 29.0202 155.17 29.0894L153.092 29.1587V20.4664H154.807C155.915 20.4664 156.85 20.5703 157.404 20.7608Z" fill="#001B70"></path>
<path d="M183.152 17.5569C183.187 17.6781 184.105 20.7775 185.196 24.431C186.286 28.0846 187.256 31.3398 187.343 31.6515L187.55 32.2575H190.39L191.048 30.1797C191.412 29.0542 192.156 26.7686 192.693 25.1236C193.212 23.4614 193.697 22.1974 193.784 22.2666C193.836 22.3359 194.598 24.6215 195.463 27.3227L197.005 32.2575H198.528C199.359 32.2575 200.035 32.2229 200.035 32.1709C200.035 32.119 200.987 28.8637 202.147 24.8985C203.307 20.9334 204.26 17.6261 204.26 17.5396C204.26 17.4357 203.584 17.3491 202.615 17.3491H200.987L199.844 21.7991C199.221 24.2579 198.649 26.4742 198.58 26.7166C198.476 27.0456 198.078 26.0414 196.883 22.2493L195.325 17.3318L193.767 17.3837L192.226 17.4357L190.736 21.9896C189.923 24.5003 189.213 26.5781 189.161 26.6474C189.109 26.6993 188.52 24.6215 187.879 22.0415L186.702 17.3491H184.884C183.516 17.3491 183.1 17.401 183.17 17.5742L183.152 17.5569Z" fill="#001B70"></path>
<path d="M211.271 22.8722V25.2617H206.492V26.543H211.271V31.322H212.553V26.543H217.332V25.2617H212.553V20.4827H211.271V22.8722Z" fill="#001B70"></path>
<path d="M125.478 37.6088C125.01 37.6954 124.127 38.007 123.521 38.3187C120.699 39.7039 119.227 42.4224 119.452 45.7816C119.712 49.9546 122.552 52.7077 126.846 53.002C131.365 53.2964 134.776 50.7164 135.451 46.5088C135.954 43.2536 134.413 39.8944 131.763 38.4572C130.066 37.5395 127.573 37.2105 125.461 37.6088H125.478ZM129.668 41.0199C131.607 41.9722 132.543 44.3964 131.902 46.7166C131.348 48.6905 129.668 49.9372 127.59 49.9372C125.616 49.9372 124.387 49.2966 123.504 47.7728C123.036 46.9936 122.984 46.7166 122.984 45.2448C122.984 43.773 123.036 43.496 123.504 42.7168C124.404 41.193 125.513 40.587 127.521 40.5697C128.456 40.5524 128.924 40.6563 129.668 41.0372V41.0199Z" fill="#001B70"></path>
<path d="M143.708 37.6088C143.241 37.6954 142.358 38.007 141.752 38.3187C138.929 39.7039 137.458 42.4224 137.683 45.7816C137.942 49.9546 140.782 52.7077 145.076 53.002C149.596 53.2964 153.007 50.7164 153.682 46.5088C154.184 43.2536 152.643 39.8944 149.994 38.4572C148.297 37.5395 145.804 37.2105 143.691 37.6088H143.708ZM147.899 41.0199C149.838 41.9722 150.773 44.3964 150.132 46.7166C149.578 48.6905 147.899 49.9372 145.821 49.9372C143.847 49.9372 142.618 49.2966 141.734 47.7728C141.267 46.9936 141.215 46.7166 141.215 45.2448C141.215 43.773 141.267 43.496 141.734 42.7168C142.635 41.193 143.743 40.587 145.752 40.5697C146.687 40.5524 147.154 40.6563 147.899 41.0372V41.0199Z" fill="#001B70"></path>
<path d="M103.57 45.2098V52.69H106.843C110.6 52.69 112.055 52.4476 113.717 51.5645C115.137 50.8026 116.505 49.3135 117.024 47.9456C117.596 46.4738 117.596 43.8419 117.024 42.3701C116.28 40.4308 114.704 39.0629 112.349 38.2837C111.397 37.972 110.566 37.9028 107.397 37.8162L103.57 37.7469V45.2271V45.2098ZM111.189 41.1927C112.349 41.5909 113.596 42.803 113.856 43.7553C114.462 46.0063 113.665 48.0495 111.76 49.0538C111.172 49.3655 110.6 49.4521 108.955 49.5213L106.878 49.5906V40.8983H108.592C109.7 40.8983 110.635 41.0022 111.189 41.1927Z" fill="#001B70"></path>
<path d="M156.42 45.245V52.7079H159.727V46.8034L160.575 46.8553L161.424 46.9073L162.982 49.7989L164.54 52.7079H168.558L168.142 52.0152C167.9 51.6516 167.034 50.2491 166.203 48.9158L164.731 46.509L165.424 46.2839C166.48 45.9722 167.536 44.7082 167.813 43.4442C168.09 42.2495 167.848 40.5699 167.294 39.8426C166.064 38.1631 164.714 37.7994 159.952 37.7994H156.402V45.2623L156.42 45.245ZM162.896 40.6565C163.848 40.8296 164.523 41.4703 164.523 42.2321C164.523 43.5654 163.64 44.0329 161.164 44.0329H159.727V40.5352H160.974C161.649 40.5352 162.515 40.5872 162.896 40.6391V40.6565Z" fill="#001B70"></path>
<path d="M164.227 60.5854C162.997 60.8797 162.253 61.6243 161.924 62.8363C161.456 64.5679 162.426 65.7799 164.885 66.5937C166.789 67.2344 167.447 67.8058 167.447 68.862C167.447 69.4681 167.344 69.6932 166.807 70.1607C165.733 71.0784 164.071 71.0091 162.911 69.9529C162.547 69.6066 162.513 69.6066 162.045 69.9183C161.56 70.2126 161.56 70.2299 161.872 70.5763C162.53 71.3208 163.603 71.7191 164.971 71.7191C166.08 71.7364 166.391 71.6671 167.136 71.2169C168.988 70.1087 169.266 67.65 167.655 66.5072C167.344 66.2821 166.53 65.9185 165.837 65.676C164.088 65.07 163.517 64.7583 163.257 64.1869C162.651 62.8537 163.482 61.607 165.058 61.5031C166.045 61.4338 166.53 61.5377 167.066 62.0052L167.638 62.49L168.105 62.1264L168.573 61.7628L168.019 61.278C167.101 60.5161 165.664 60.2737 164.244 60.6027L164.227 60.5854Z" fill="#001B70"></path>
<path d="M104.957 65.1559C103.849 67.6667 102.758 70.16 102.533 70.6968L102.117 71.6665L102.775 71.6145C103.433 71.5626 103.468 71.5279 104.022 70.1774L104.611 68.7921L107.468 68.7402L110.325 68.7056L110.931 70.1774C111.519 71.6145 111.537 71.6492 112.16 71.6492C112.506 71.6492 112.783 71.6318 112.783 71.5972C112.783 71.5626 111.71 69.0865 110.429 66.1083C108.108 60.8444 108.039 60.6886 107.502 60.6367L106.948 60.5847L104.957 65.1559ZM108.714 64.8962C109.32 66.3853 109.84 67.632 109.84 67.7013C109.84 67.8225 105.321 67.8052 105.199 67.7013C105.147 67.6493 105.58 66.4373 106.169 65.0174C107.294 62.3509 107.433 62.0219 107.537 62.1258C107.554 62.1604 108.091 63.3898 108.714 64.9135V64.8962Z" fill="#001B70"></path>
<path d="M113.148 60.6374C113.148 60.6374 113.893 63.1481 114.776 66.1263L116.404 71.5633L117.062 71.6153L117.737 71.6672L118.083 70.5071C118.274 69.8664 118.88 67.8059 119.434 65.9012C119.988 63.9966 120.49 62.4382 120.542 62.4382C120.594 62.4382 121.235 64.4987 121.997 67.044L123.347 71.6499H124.68L126.221 66.3514C127.087 63.4425 127.832 60.9491 127.866 60.8279C127.918 60.672 127.745 60.6028 127.312 60.6028H126.689L125.425 65.2086C124.732 67.7367 124.126 69.8145 124.057 69.8145C123.988 69.8145 123.468 68.1695 122.88 66.161C122.308 64.1697 121.702 62.0919 121.529 61.5551C121.252 60.6201 121.217 60.6028 120.577 60.6028H119.901L118.516 65.2952C117.754 67.8752 117.096 69.9011 117.044 69.7625C116.975 69.6413 116.369 67.5116 115.659 65.0528L114.43 60.6028H113.806C113.46 60.6028 113.183 60.6201 113.183 60.6374H113.148Z" fill="#001B70"></path>
<path d="M130.914 65.1559C129.806 67.6667 128.715 70.16 128.49 70.6968L128.074 71.6665L128.732 71.6145C129.39 71.5626 129.425 71.5279 129.979 70.1774L130.568 68.7921L133.425 68.7402L136.282 68.7056L136.888 70.1774C137.476 71.6145 137.494 71.6492 138.117 71.6492C138.463 71.6492 138.74 71.6318 138.74 71.5972C138.74 71.5626 137.667 69.0865 136.386 66.1083C134.065 60.8444 133.996 60.6886 133.459 60.6367L132.905 60.5847L130.914 65.1559ZM134.671 64.8962C135.277 66.3853 135.797 67.632 135.797 67.7013C135.797 67.8225 131.278 67.8052 131.156 67.7013C131.104 67.6493 131.537 66.4373 132.126 65.0174C133.251 62.3509 133.39 62.0219 133.494 62.1258C133.511 62.1604 134.048 63.3898 134.671 64.9135V64.8962Z" fill="#001B70"></path>
<path d="M140.574 66.1263V71.6499H141.682V66.49H143.622L145.163 69.0699C146.652 71.5806 146.704 71.6499 147.31 71.6499C147.656 71.6499 147.933 71.6153 147.933 71.5633C147.933 71.5114 147.241 70.3339 146.375 68.9487L144.834 66.4034L145.336 66.2995C146.894 65.9705 147.656 65.0182 147.639 63.4252C147.639 62.6633 147.535 62.317 147.137 61.8149C146.461 60.9145 145.319 60.6028 142.669 60.6028H140.592V66.1263H140.574ZM145.596 62.0226C146.721 62.6806 146.721 64.4121 145.578 65.0874C145.163 65.3472 144.47 65.4684 143.31 65.5549L141.665 65.6415V61.4859L143.345 61.5898C144.47 61.659 145.18 61.8148 145.596 62.0399V62.0226Z" fill="#001B70"></path>
<path d="M150.148 66.1264V71.6846L152.78 71.6154C155.118 71.5634 155.499 71.5115 156.399 71.0786C157.767 70.4379 158.425 69.8492 159.066 68.6718C159.551 67.806 159.62 67.5116 159.62 66.1264C159.62 64.7412 159.551 64.4468 159.066 63.5811C158.425 62.4036 157.767 61.8149 156.399 61.1743C155.499 60.7587 155.118 60.6894 152.78 60.6375L150.148 60.5682V66.1264ZM155.862 62.092C159.326 63.5811 159.326 68.6718 155.862 70.1609C155.222 70.4379 154.373 70.6111 153.109 70.6803L151.274 70.7842V61.4686L153.109 61.5725C154.373 61.6418 155.222 61.8149 155.862 62.092Z" fill="#001B70"></path>
<path fill-rule="evenodd" clip-rule="evenodd" d="M27.0634 4.20715H72.9071L95.6684 44.4287L72.9091 85.329H27.0634L2.74609 44.7594L27.0634 4.20715ZM27.5342 5.03828L3.71515 44.7595L27.5342 84.4979H72.4204L94.7153 44.4322L72.4224 5.03828H27.5342Z" fill="#001B70"></path>
<path fill-rule="evenodd" clip-rule="evenodd" d="M34.0955 16.9855H65.2191L80.9343 45.1462L65.212 71.6843H35.0624L19.0273 45.1526L34.0955 16.9855ZM34.5935 17.8166L19.9833 45.1275L35.5312 70.8532H64.7383L79.9756 45.1339L64.7312 17.8166H34.5935Z" fill="#001B70"></path>
<path fill-rule="evenodd" clip-rule="evenodd" d="M37.4609 74.6971H61.3909L49.991 81.7948L37.4609 74.6971ZM40.6145 75.5283L49.9709 80.8283L58.4835 75.5283H40.6145Z" fill="#001B70"></path>
<path fill-rule="evenodd" clip-rule="evenodd" d="M81.4882 66.7664L73.376 81.7931L54.3125 83.4156L81.4882 66.7664ZM57.7413 82.2896L72.858 81.0031L79.2907 69.0874L57.7413 82.2896Z" fill="#001B70"></path>
<path fill-rule="evenodd" clip-rule="evenodd" d="M20.1094 66.8436L44.7738 81.727H27.3681L20.1094 66.8436ZM22.0906 69.0099L27.8875 80.8959H41.7878L22.0906 69.0099Z" fill="#001B70"></path>
<path fill-rule="evenodd" clip-rule="evenodd" d="M81.8949 48.879V63.3156L69.3047 68.8545L81.8949 48.879ZM71.456 67.0001L81.0638 62.7732V51.7564L71.456 67.0001Z" fill="#001B70"></path>
<path fill-rule="evenodd" clip-rule="evenodd" d="M84.0078 28.4333L95.4725 43.9521L84.0078 58.6977V28.4333ZM84.8389 30.9571V56.2747L94.4296 43.9393L84.8389 30.9571Z" fill="#001B70"></path>
<path fill-rule="evenodd" clip-rule="evenodd" d="M69.1406 18.7375L81.8911 26.2367V39.3651L69.1406 18.7375ZM71.6123 21.1555L81.06 36.4398V26.7121L71.6123 21.1555Z" fill="#001B70"></path>
<path fill-rule="evenodd" clip-rule="evenodd" d="M54.4648 5.98999H71.776L80.8373 21.0986L54.4648 5.98999ZM57.5876 6.82112L78.4857 18.7935L71.3053 6.82112H57.5876Z" fill="#001B70"></path>
<path fill-rule="evenodd" clip-rule="evenodd" d="M49.215 8.06262L61.6011 14.6659H37.4492L49.215 8.06262ZM49.2253 9.00995L40.6284 13.8347H58.2754L49.2253 9.00995Z" fill="#001B70"></path>
<path fill-rule="evenodd" clip-rule="evenodd" d="M26.7661 5.98999H44.7149L18.1836 22.7537L26.7661 5.98999ZM27.2744 6.82112L20.3078 20.4284L41.8436 6.82112H27.2744Z" fill="#001B70"></path>
<path fill-rule="evenodd" clip-rule="evenodd" d="M29.6826 18.7526L18.0703 41.2415V26.2489L29.6826 18.7526ZM18.9014 26.7016V37.8204L27.5133 21.1422L18.9014 26.7016Z" fill="#001B70"></path>
<path fill-rule="evenodd" clip-rule="evenodd" d="M15.316 26.3398V58.7327L2.70312 41.9281L15.316 26.3398ZM3.75672 41.9473L14.4848 56.2408V28.6884L3.75672 41.9473Z" fill="#001B70"></path>
<path fill-rule="evenodd" clip-rule="evenodd" d="M18.0703 48.7594L29.66 68.9421L18.0703 62.9686V48.7594ZM18.9014 51.8758V62.462L27.536 66.9123L18.9014 51.8758Z" fill="#001B70"></path>
<path fill-rule="evenodd" clip-rule="evenodd" d="M25.9419 0.943237H74.6227L98.7746 43.6221L74.6367 87H25.9423L0.164062 43.9806L25.9419 0.943237ZM29.2095 6.70921L6.8856 43.9799L29.2091 81.234H71.2466L92.1629 43.6458L71.2605 6.70921H29.2095Z" fill="#001B70"></path>
</svg>